<svg xmlns="http://www.w3.org/2000/svg" xmlns:xlink="http://www.w3.org/1999/xlink" width="144" height="140pt" viewBox="0 0 108 140"><g id="graph0" class="graph" transform="scale(1 1) rotate(0) translate(4 136)"><title>CLBox3x3</title><polygon fill="#fff" stroke="none" points="-4 4 -4 -136 104 -136 104 4 -4 4"/><g id="node1" class="node"><title>Node1</title><polygon fill="#bfbfbf" stroke="#000" points="19 -.5 19 -19.5 81 -19.5 81 -.5 19 -.5"/><text x="50" y="-7.5" font-family="Helvetica,sans-Serif" font-size="10" text-anchor="middle">CLBox3x3</text></g><g id="node2" class="node"><title>Node2</title><g id="a_node2"><a target="_top" xlink:href="classarm__compute_1_1_i_c_l_simple_function.xhtml" xlink:title="Basic interface for functions which have a single OpenCL kernel."><polygon fill="#fff" stroke="#000" points="0 -56.5 0 -75.5 100 -75.5 100 -56.5 0 -56.5"/><text x="50" y="-63.5" font-family="Helvetica,sans-Serif" font-size="10" text-anchor="middle">ICLSimpleFunction</text></a></g></g><g id="edge1" class="edge"><title>Node2-&gt;Node1</title><path fill="none" stroke="#191970" d="M50,-45.8045C50,-36.9102 50,-26.7798 50,-19.7511"/><polygon fill="#191970" stroke="#191970" points="46.5 -46.083 50 -56.083 53.5 -46.083 46.5 -46.083"/></g><g id="node3" class="node"><title>Node3</title><g id="a_node3"><a target="_top" xlink:href="classarm__compute_1_1_i_function.xhtml" xlink:title="Base class for all functions."><polygon fill="#fff" stroke="#000" points="21.5 -112.5 21.5 -131.5 78.5 -131.5 78.5 -112.5 21.5 -112.5"/><text x="50" y="-119.5" font-family="Helvetica,sans-Serif" font-size="10" text-anchor="middle">IFunction</text></a></g></g><g id="edge2" class="edge"><title>Node3-&gt;Node2</title><path fill="none" stroke="#191970" d="M50,-101.805C50,-92.9102 50,-82.7798 50,-75.7511"/><polygon fill="#191970" stroke="#191970" points="46.5 -102.083 50 -112.083 53.5 -102.083 46.5 -102.083"/></g></g></svg>