<svg xmlns="http://www.w3.org/2000/svg" xmlns:xlink="http://www.w3.org/1999/xlink" width="184" height="151pt" viewBox="0 0 138 151"><g id="graph0" class="graph" transform="scale(1 1) rotate(0) translate(4 147)"><title>NECumulativeDistributionKernel</title><polygon fill="#fff" stroke="none" points="-4 4 -4 -147 134 -147 134 4 -4 4"/><g id="node1" class="node"><title>Node1</title><polygon fill="#bfbfbf" stroke="#000" points="0 -.5 0 -30.5 130 -30.5 130 -.5 0 -.5"/><text x="8" y="-18.5" font-family="Helvetica,sans-Serif" font-size="10" text-anchor="start">NECumulativeDistribution</text><text x="65" y="-7.5" font-family="Helvetica,sans-Serif" font-size="10" text-anchor="middle">Kernel</text></g><g id="node2" class="node"><title>Node2</title><g id="a_node2"><a target="_top" xlink:href="classarm__compute_1_1_i_c_p_p_kernel.xhtml" xlink:title="Common interface for all kernels implemented in C++."><polygon fill="#fff" stroke="#000" points="34 -67.5 34 -86.5 96 -86.5 96 -67.5 34 -67.5"/><text x="65" y="-74.5" font-family="Helvetica,sans-Serif" font-size="10" text-anchor="middle">INEKernel</text></a></g></g><g id="edge1" class="edge"><title>Node2-&gt;Node1</title><path fill="none" stroke="#191970" d="M65,-57.2349C65,-48.5864 65,-38.4969 65,-30.523"/><polygon fill="#191970" stroke="#191970" points="61.5 -57.475 65 -67.475 68.5 -57.475 61.5 -57.475"/></g><g id="node3" class="node"><title>Node3</title><g id="a_node3"><a target="_top" xlink:href="classarm__compute_1_1_i_kernel.xhtml" xlink:title="Common information for all the kernels."><polygon fill="#fff" stroke="#000" points="41.5 -123.5 41.5 -142.5 88.5 -142.5 88.5 -123.5 41.5 -123.5"/><text x="65" y="-130.5" font-family="Helvetica,sans-Serif" font-size="10" text-anchor="middle">IKernel</text></a></g></g><g id="edge2" class="edge"><title>Node3-&gt;Node2</title><path fill="none" stroke="#191970" d="M65,-112.805C65,-103.91 65,-93.7798 65,-86.7511"/><polygon fill="#191970" stroke="#191970" points="61.5 -113.083 65 -123.083 68.5 -113.083 61.5 -113.083"/></g></g></svg>