<svg xmlns="http://www.w3.org/2000/svg" xmlns:xlink="http://www.w3.org/1999/xlink" width="122pt" height="336" viewBox="0 0 122 252"><g id="graph0" class="graph" transform="scale(1 1) rotate(0) translate(4 248)"><title>CLGaussian3x3Kernel</title><polygon fill="#fff" stroke="none" points="-4 4 -4 -248 118 -248 118 4 -4 4"/><g id="node1" class="node"><title>Node1</title><polygon fill="#bfbfbf" stroke="#000" points="0 -.5 0 -19.5 114 -19.5 114 -.5 0 -.5"/><text x="57" y="-7.5" font-family="Helvetica,sans-Serif" font-size="10" text-anchor="middle">CLGaussian3x3Kernel</text></g><g id="node2" class="node"><title>Node2</title><g id="a_node2"><a target="_top" xlink:href="classarm__compute_1_1_i_c_l_simple2_d_kernel.xhtml" xlink:title="Interface for simple OpenCL kernels having 1 tensor input and 1 tensor output."><polygon fill="#fff" stroke="#000" points="5.5 -56.5 5.5 -75.5 108.5 -75.5 108.5 -56.5 5.5 -56.5"/><text x="57" y="-63.5" font-family="Helvetica,sans-Serif" font-size="10" text-anchor="middle">ICLSimple2DKernel</text></a></g></g><g id="edge1" class="edge"><title>Node2-&gt;Node1</title><path fill="none" stroke="#191970" d="M57,-45.8045C57,-36.9102 57,-26.7798 57,-19.7511"/><polygon fill="#191970" stroke="#191970" points="53.5 -46.083 57 -56.083 60.5 -46.083 53.5 -46.083"/></g><g id="node3" class="node"><title>Node3</title><g id="a_node3"><a target="_top" xlink:href="classarm__compute_1_1_i_c_l_simple_kernel.xhtml" xlink:title="Interface for simple OpenCL kernels having 1 tensor input and 1 tensor output."><polygon fill="#fff" stroke="#000" points="12 -112.5 12 -131.5 102 -131.5 102 -112.5 12 -112.5"/><text x="57" y="-119.5" font-family="Helvetica,sans-Serif" font-size="10" text-anchor="middle">ICLSimpleKernel</text></a></g></g><g id="edge2" class="edge"><title>Node3-&gt;Node2</title><path fill="none" stroke="#191970" d="M57,-101.805C57,-92.9102 57,-82.7798 57,-75.7511"/><polygon fill="#191970" stroke="#191970" points="53.5 -102.083 57 -112.083 60.5 -102.083 53.5 -102.083"/></g><g id="node4" class="node"><title>Node4</title><g id="a_node4"><a target="_top" xlink:href="classarm__compute_1_1_i_c_l_kernel.xhtml" xlink:title="Common interface for all the OpenCL kernels."><polygon fill="#fff" stroke="#000" points="27 -168.5 27 -187.5 87 -187.5 87 -168.5 27 -168.5"/><text x="57" y="-175.5" font-family="Helvetica,sans-Serif" font-size="10" text-anchor="middle">ICLKernel</text></a></g></g><g id="edge3" class="edge"><title>Node4-&gt;Node3</title><path fill="none" stroke="#191970" d="M57,-157.805C57,-148.91 57,-138.78 57,-131.751"/><polygon fill="#191970" stroke="#191970" points="53.5 -158.083 57 -168.083 60.5 -158.083 53.5 -158.083"/></g><g id="node5" class="node"><title>Node5</title><g id="a_node5"><a target="_top" xlink:href="classarm__compute_1_1_i_kernel.xhtml" xlink:title="Common information for all the kernels."><polygon fill="#fff" stroke="#000" points="33.5 -224.5 33.5 -243.5 80.5 -243.5 80.5 -224.5 33.5 -224.5"/><text x="57" y="-231.5" font-family="Helvetica,sans-Serif" font-size="10" text-anchor="middle">IKernel</text></a></g></g><g id="edge4" class="edge"><title>Node5-&gt;Node4</title><path fill="none" stroke="#191970" d="M57,-213.805C57,-204.91 57,-194.78 57,-187.751"/><polygon fill="#191970" stroke="#191970" points="53.5 -214.083 57 -224.083 60.5 -214.083 53.5 -214.083"/></g></g></svg>