<svg xmlns="http://www.w3.org/2000/svg" xmlns:xlink="http://www.w3.org/1999/xlink" width="137pt" height="140pt" viewBox="0 0 137 140"><g id="graph0" class="graph" transform="scale(1 1) rotate(0) translate(4 136)"><title>AccessWindowHorizontal</title><polygon fill="#fff" stroke="none" points="-4 4 -4 -136 133 -136 133 4 -4 4"/><g id="node1" class="node"><title>Node1</title><polygon fill="#bfbfbf" stroke="#000" points="0 -.5 0 -19.5 129 -19.5 129 -.5 0 -.5"/><text x="64.5" y="-7.5" font-family="Helvetica,sans-Serif" font-size="10" text-anchor="middle">AccessWindowHorizontal</text></g><g id="node2" class="node"><title>Node2</title><g id="a_node2"><a target="_top" xlink:href="classarm__compute_1_1_access_window_rectangle.xhtml" xlink:title="Implementation of a rectangular access pattern."><polygon fill="#fff" stroke="#000" points="0 -56.5 0 -75.5 129 -75.5 129 -56.5 0 -56.5"/><text x="64.5" y="-63.5" font-family="Helvetica,sans-Serif" font-size="10" text-anchor="middle">AccessWindowRectangle</text></a></g></g><g id="edge1" class="edge"><title>Node2-&gt;Node1</title><path fill="none" stroke="#191970" d="M64.5,-45.8045C64.5,-36.9102 64.5,-26.7798 64.5,-19.7511"/><polygon fill="#191970" stroke="#191970" points="61 -46.083 64.5 -56.083 68 -46.083 61 -46.083"/></g><g id="node3" class="node"><title>Node3</title><g id="a_node3"><a target="_top" xlink:href="classarm__compute_1_1_i_access_window.xhtml" xlink:title="Interface describing methods to update access window and padding based on kernel parameters."><polygon fill="#fff" stroke="#000" points="20.5 -112.5 20.5 -131.5 108.5 -131.5 108.5 -112.5 20.5 -112.5"/><text x="64.5" y="-119.5" font-family="Helvetica,sans-Serif" font-size="10" text-anchor="middle">IAccessWindow</text></a></g></g><g id="edge2" class="edge"><title>Node3-&gt;Node2</title><path fill="none" stroke="#191970" d="M64.5,-101.805C64.5,-92.9102 64.5,-82.7798 64.5,-75.7511"/><polygon fill="#191970" stroke="#191970" points="61 -102.083 64.5 -112.083 68 -102.083 61 -102.083"/></g></g></svg>