<svg xmlns="http://www.w3.org/2000/svg" xmlns:xlink="http://www.w3.org/1999/xlink" width="148" height="336" viewBox="0 0 111 252"><g id="graph0" class="graph" transform="scale(1 1) rotate(0) translate(4 248)"><title>CLTransposeKernel</title><polygon fill="#fff" stroke="none" points="-4 4 -4 -248 107 -248 107 4 -4 4"/><g id="node1" class="node"><title>Node1</title><polygon fill="#bfbfbf" stroke="#000" points="0 -.5 0 -19.5 103 -19.5 103 -.5 0 -.5"/><text x="51.5" y="-7.5" font-family="Helvetica,sans-Serif" font-size="10" text-anchor="middle">CLTransposeKernel</text></g><g id="node2" class="node"><title>Node2</title><g id="a_node2"><a target="_top" xlink:href="classarm__compute_1_1_i_c_l_simple2_d_kernel.xhtml" xlink:title="Interface for simple OpenCL kernels having 1 tensor input and 1 tensor output."><polygon fill="#fff" stroke="#000" points="0 -56.5 0 -75.5 103 -75.5 103 -56.5 0 -56.5"/><text x="51.5" y="-63.5" font-family="Helvetica,sans-Serif" font-size="10" text-anchor="middle">ICLSimple2DKernel</text></a></g></g><g id="edge1" class="edge"><title>Node2-&gt;Node1</title><path fill="none" stroke="#191970" d="M51.5,-45.8045C51.5,-36.9102 51.5,-26.7798 51.5,-19.7511"/><polygon fill="#191970" stroke="#191970" points="48 -46.083 51.5 -56.083 55 -46.083 48 -46.083"/></g><g id="node3" class="node"><title>Node3</title><g id="a_node3"><a target="_top" xlink:href="classarm__compute_1_1_i_c_l_simple_kernel.xhtml" xlink:title="Interface for simple OpenCL kernels having 1 tensor input and 1 tensor output."><polygon fill="#fff" stroke="#000" points="6.5 -112.5 6.5 -131.5 96.5 -131.5 96.5 -112.5 6.5 -112.5"/><text x="51.5" y="-119.5" font-family="Helvetica,sans-Serif" font-size="10" text-anchor="middle">ICLSimpleKernel</text></a></g></g><g id="edge2" class="edge"><title>Node3-&gt;Node2</title><path fill="none" stroke="#191970" d="M51.5,-101.805C51.5,-92.9102 51.5,-82.7798 51.5,-75.7511"/><polygon fill="#191970" stroke="#191970" points="48 -102.083 51.5 -112.083 55 -102.083 48 -102.083"/></g><g id="node4" class="node"><title>Node4</title><g id="a_node4"><a target="_top" xlink:href="classarm__compute_1_1_i_c_l_kernel.xhtml" xlink:title="Common interface for all the OpenCL kernels."><polygon fill="#fff" stroke="#000" points="21.5 -168.5 21.5 -187.5 81.5 -187.5 81.5 -168.5 21.5 -168.5"/><text x="51.5" y="-175.5" font-family="Helvetica,sans-Serif" font-size="10" text-anchor="middle">ICLKernel</text></a></g></g><g id="edge3" class="edge"><title>Node4-&gt;Node3</title><path fill="none" stroke="#191970" d="M51.5,-157.805C51.5,-148.91 51.5,-138.78 51.5,-131.751"/><polygon fill="#191970" stroke="#191970" points="48 -158.083 51.5 -168.083 55 -158.083 48 -158.083"/></g><g id="node5" class="node"><title>Node5</title><g id="a_node5"><a target="_top" xlink:href="classarm__compute_1_1_i_kernel.xhtml" xlink:title="Common information for all the kernels."><polygon fill="#fff" stroke="#000" points="28 -224.5 28 -243.5 75 -243.5 75 -224.5 28 -224.5"/><text x="51.5" y="-231.5" font-family="Helvetica,sans-Serif" font-size="10" text-anchor="middle">IKernel</text></a></g></g><g id="edge4" class="edge"><title>Node5-&gt;Node4</title><path fill="none" stroke="#191970" d="M51.5,-213.805C51.5,-204.91 51.5,-194.78 51.5,-187.751"/><polygon fill="#191970" stroke="#191970" points="48 -214.083 51.5 -224.083 55 -214.083 48 -214.083"/></g></g></svg>