<svg xmlns="http://www.w3.org/2000/svg" xmlns:xlink="http://www.w3.org/1999/xlink" width="139pt" height="151pt" viewBox="0 0 139 151"><g id="graph0" class="graph" transform="scale(1 1) rotate(0) translate(4 147)"><title>CLPixelWiseMultiplicationKernel</title><polygon fill="#fff" stroke="none" points="-4 4 -4 -147 135 -147 135 4 -4 4"/><g id="node1" class="node"><title>Node1</title><polygon fill="#bfbfbf" stroke="#000" points="0 -.5 0 -30.5 131 -30.5 131 -.5 0 -.5"/><text x="8" y="-18.5" font-family="Helvetica,sans-Serif" font-size="10" text-anchor="start">CLPixelWiseMultiplication</text><text x="65.5" y="-7.5" font-family="Helvetica,sans-Serif" font-size="10" text-anchor="middle">Kernel</text></g><g id="node2" class="node"><title>Node2</title><g id="a_node2"><a target="_top" xlink:href="classarm__compute_1_1_i_c_l_kernel.xhtml" xlink:title="Common interface for all the OpenCL kernels."><polygon fill="#fff" stroke="#000" points="35.5 -67.5 35.5 -86.5 95.5 -86.5 95.5 -67.5 35.5 -67.5"/><text x="65.5" y="-74.5" font-family="Helvetica,sans-Serif" font-size="10" text-anchor="middle">ICLKernel</text></a></g></g><g id="edge1" class="edge"><title>Node2-&gt;Node1</title><path fill="none" stroke="#191970" d="M65.5,-57.2349C65.5,-48.5864 65.5,-38.4969 65.5,-30.523"/><polygon fill="#191970" stroke="#191970" points="62 -57.475 65.5 -67.475 69 -57.475 62 -57.475"/></g><g id="node3" class="node"><title>Node3</title><g id="a_node3"><a target="_top" xlink:href="classarm__compute_1_1_i_kernel.xhtml" xlink:title="Common information for all the kernels."><polygon fill="#fff" stroke="#000" points="42 -123.5 42 -142.5 89 -142.5 89 -123.5 42 -123.5"/><text x="65.5" y="-130.5" font-family="Helvetica,sans-Serif" font-size="10" text-anchor="middle">IKernel</text></a></g></g><g id="edge2" class="edge"><title>Node3-&gt;Node2</title><path fill="none" stroke="#191970" d="M65.5,-112.805C65.5,-103.91 65.5,-93.7798 65.5,-86.7511"/><polygon fill="#191970" stroke="#191970" points="62 -113.083 65.5 -123.083 69 -113.083 62 -113.083"/></g></g></svg>