<svg xmlns="http://www.w3.org/2000/svg" xmlns:xlink="http://www.w3.org/1999/xlink" width="100pt" height="196pt" viewBox="0 0 100 196"><g id="graph0" class="graph" transform="scale(1 1) rotate(0) translate(4 192)"><title>NEBox3x3Kernel</title><polygon fill="#fff" stroke="none" points="-4 4 -4 -192 96 -192 96 4 -4 4"/><g id="node1" class="node"><title>Node1</title><polygon fill="#bfbfbf" stroke="#000" points="0 -.5 0 -19.5 92 -19.5 92 -.5 0 -.5"/><text x="46" y="-7.5" font-family="Helvetica,sans-Serif" font-size="10" text-anchor="middle">NEBox3x3Kernel</text></g><g id="node2" class="node"><title>Node2</title><g id="a_node2"><a target="_top" xlink:href="classarm__compute_1_1_i_c_p_p_simple_kernel.xhtml" xlink:title="Interface for simple NEON kernels having 1 tensor input and 1 tensor output."><polygon fill="#fff" stroke="#000" points="0 -56.5 0 -75.5 92 -75.5 92 -56.5 0 -56.5"/><text x="46" y="-63.5" font-family="Helvetica,sans-Serif" font-size="10" text-anchor="middle">INESimpleKernel</text></a></g></g><g id="edge1" class="edge"><title>Node2-&gt;Node1</title><path fill="none" stroke="#191970" d="M46,-45.8045C46,-36.9102 46,-26.7798 46,-19.7511"/><polygon fill="#191970" stroke="#191970" points="42.5 -46.083 46 -56.083 49.5 -46.083 42.5 -46.083"/></g><g id="node3" class="node"><title>Node3</title><g id="a_node3"><a target="_top" xlink:href="classarm__compute_1_1_i_c_p_p_kernel.xhtml" xlink:title="Common interface for all kernels implemented in C++."><polygon fill="#fff" stroke="#000" points="12 -112.5 12 -131.5 80 -131.5 80 -112.5 12 -112.5"/><text x="46" y="-119.5" font-family="Helvetica,sans-Serif" font-size="10" text-anchor="middle">ICPPKernel</text></a></g></g><g id="edge2" class="edge"><title>Node3-&gt;Node2</title><path fill="none" stroke="#191970" d="M46,-101.805C46,-92.9102 46,-82.7798 46,-75.7511"/><polygon fill="#191970" stroke="#191970" points="42.5 -102.083 46 -112.083 49.5 -102.083 42.5 -102.083"/></g><g id="node4" class="node"><title>Node4</title><g id="a_node4"><a target="_top" xlink:href="classarm__compute_1_1_i_kernel.xhtml" xlink:title="Common information for all the kernels."><polygon fill="#fff" stroke="#000" points="22.5 -168.5 22.5 -187.5 69.5 -187.5 69.5 -168.5 22.5 -168.5"/><text x="46" y="-175.5" font-family="Helvetica,sans-Serif" font-size="10" text-anchor="middle">IKernel</text></a></g></g><g id="edge3" class="edge"><title>Node4-&gt;Node3</title><path fill="none" stroke="#191970" d="M46,-157.805C46,-148.91 46,-138.78 46,-131.751"/><polygon fill="#191970" stroke="#191970" points="42.5 -158.083 46 -168.083 49.5 -158.083 42.5 -158.083"/></g></g></svg>