<svg xmlns="http://www.w3.org/2000/svg" xmlns:xlink="http://www.w3.org/1999/xlink" width="216" height="336" viewBox="0 0 162 252"><g id="graph0" class="graph" transform="scale(1 1) rotate(0) translate(4 248)"><title>CLGEMMTranspose1xWKernel</title><polygon fill="#fff" stroke="none" points="-4 4 -4 -248 158 -248 158 4 -4 4"/><g id="node1" class="node"><title>Node1</title><polygon fill="#bfbfbf" stroke="#000" points="0 -.5 0 -19.5 154 -19.5 154 -.5 0 -.5"/><text x="77" y="-7.5" font-family="Helvetica,sans-Serif" font-size="10" text-anchor="middle">CLGEMMTranspose1xWKernel</text></g><g id="node2" class="node"><title>Node2</title><g id="a_node2"><a target="_top" xlink:href="classarm__compute_1_1_i_c_l_simple2_d_kernel.xhtml" xlink:title="Interface for simple OpenCL kernels having 1 tensor input and 1 tensor output."><polygon fill="#fff" stroke="#000" points="25.5 -56.5 25.5 -75.5 128.5 -75.5 128.5 -56.5 25.5 -56.5"/><text x="77" y="-63.5" font-family="Helvetica,sans-Serif" font-size="10" text-anchor="middle">ICLSimple2DKernel</text></a></g></g><g id="edge1" class="edge"><title>Node2-&gt;Node1</title><path fill="none" stroke="#191970" d="M77,-45.8045C77,-36.9102 77,-26.7798 77,-19.7511"/><polygon fill="#191970" stroke="#191970" points="73.5 -46.083 77 -56.083 80.5 -46.083 73.5 -46.083"/></g><g id="node3" class="node"><title>Node3</title><g id="a_node3"><a target="_top" xlink:href="classarm__compute_1_1_i_c_l_simple_kernel.xhtml" xlink:title="Interface for simple OpenCL kernels having 1 tensor input and 1 tensor output."><polygon fill="#fff" stroke="#000" points="32 -112.5 32 -131.5 122 -131.5 122 -112.5 32 -112.5"/><text x="77" y="-119.5" font-family="Helvetica,sans-Serif" font-size="10" text-anchor="middle">ICLSimpleKernel</text></a></g></g><g id="edge2" class="edge"><title>Node3-&gt;Node2</title><path fill="none" stroke="#191970" d="M77,-101.805C77,-92.9102 77,-82.7798 77,-75.7511"/><polygon fill="#191970" stroke="#191970" points="73.5 -102.083 77 -112.083 80.5 -102.083 73.5 -102.083"/></g><g id="node4" class="node"><title>Node4</title><g id="a_node4"><a target="_top" xlink:href="classarm__compute_1_1_i_c_l_kernel.xhtml" xlink:title="Common interface for all the OpenCL kernels."><polygon fill="#fff" stroke="#000" points="47 -168.5 47 -187.5 107 -187.5 107 -168.5 47 -168.5"/><text x="77" y="-175.5" font-family="Helvetica,sans-Serif" font-size="10" text-anchor="middle">ICLKernel</text></a></g></g><g id="edge3" class="edge"><title>Node4-&gt;Node3</title><path fill="none" stroke="#191970" d="M77,-157.805C77,-148.91 77,-138.78 77,-131.751"/><polygon fill="#191970" stroke="#191970" points="73.5 -158.083 77 -168.083 80.5 -158.083 73.5 -158.083"/></g><g id="node5" class="node"><title>Node5</title><g id="a_node5"><a target="_top" xlink:href="classarm__compute_1_1_i_kernel.xhtml" xlink:title="Common information for all the kernels."><polygon fill="#fff" stroke="#000" points="53.5 -224.5 53.5 -243.5 100.5 -243.5 100.5 -224.5 53.5 -224.5"/><text x="77" y="-231.5" font-family="Helvetica,sans-Serif" font-size="10" text-anchor="middle">IKernel</text></a></g></g><g id="edge4" class="edge"><title>Node5-&gt;Node4</title><path fill="none" stroke="#191970" d="M77,-213.805C77,-204.91 77,-194.78 77,-187.751"/><polygon fill="#191970" stroke="#191970" points="73.5 -214.083 77 -224.083 80.5 -214.083 73.5 -214.083"/></g></g></svg>