<svg xmlns="http://www.w3.org/2000/svg" xmlns:xlink="http://www.w3.org/1999/xlink" width="148pt" height="319pt" viewBox="0 0 148 319"><g id="graph0" class="graph" transform="scale(1 1) rotate(0) translate(4 315)"><title>CLGaussian5x5VertKernel</title><polygon fill="#fff" stroke="none" points="-4 4 -4 -315 144 -315 144 4 -4 4"/><g id="node1" class="node"><title>Node1</title><polygon fill="#bfbfbf" stroke="#000" points="4 -.5 4 -19.5 136 -19.5 136 -.5 4 -.5"/><text x="70" y="-7.5" font-family="Helvetica,sans-Serif" font-size="10" text-anchor="middle">CLGaussian5x5VertKernel</text></g><g id="node2" class="node"><title>Node2</title><g id="a_node2"><a target="_top" xlink:href="classarm__compute_1_1_c_l_separable_convolution_vert_kernel.xhtml" xlink:title="Kernel for the Vertical pass of a Separable Convolution."><polygon fill="#fff" stroke="#000" points="0 -56.5 0 -86.5 140 -86.5 140 -56.5 0 -56.5"/><text x="8" y="-74.5" font-family="Helvetica,sans-Serif" font-size="10" text-anchor="start">CLSeparableConvolution5x5</text><text x="70" y="-63.5" font-family="Helvetica,sans-Serif" font-size="10" text-anchor="middle">VertKernel</text></a></g></g><g id="edge1" class="edge"><title>Node2-&gt;Node1</title><path fill="none" stroke="#191970" d="M70,-46.2892C70,-36.857 70,-26.6548 70,-19.6578"/><polygon fill="#191970" stroke="#191970" points="66.5 -46.399 70 -56.399 73.5 -46.399 66.5 -46.399"/></g><g id="node3" class="node"><title>Node3</title><g id="a_node3"><a target="_top" xlink:href="classarm__compute_1_1_i_c_l_simple2_d_kernel.xhtml" xlink:title="Interface for simple OpenCL kernels having 1 tensor input and 1 tensor output."><polygon fill="#fff" stroke="#000" points="18.5 -123.5 18.5 -142.5 121.5 -142.5 121.5 -123.5 18.5 -123.5"/><text x="70" y="-130.5" font-family="Helvetica,sans-Serif" font-size="10" text-anchor="middle">ICLSimple2DKernel</text></a></g></g><g id="edge2" class="edge"><title>Node3-&gt;Node2</title><path fill="none" stroke="#191970" d="M70,-113.235C70,-104.586 70,-94.4969 70,-86.523"/><polygon fill="#191970" stroke="#191970" points="66.5 -113.475 70 -123.475 73.5 -113.475 66.5 -113.475"/></g><g id="node4" class="node"><title>Node4</title><g id="a_node4"><a target="_top" xlink:href="classarm__compute_1_1_i_c_l_simple_kernel.xhtml" xlink:title="Interface for simple OpenCL kernels having 1 tensor input and 1 tensor output."><polygon fill="#fff" stroke="#000" points="25 -179.5 25 -198.5 115 -198.5 115 -179.5 25 -179.5"/><text x="70" y="-186.5" font-family="Helvetica,sans-Serif" font-size="10" text-anchor="middle">ICLSimpleKernel</text></a></g></g><g id="edge3" class="edge"><title>Node4-&gt;Node3</title><path fill="none" stroke="#191970" d="M70,-168.805C70,-159.91 70,-149.78 70,-142.751"/><polygon fill="#191970" stroke="#191970" points="66.5 -169.083 70 -179.083 73.5 -169.083 66.5 -169.083"/></g><g id="node5" class="node"><title>Node5</title><g id="a_node5"><a target="_top" xlink:href="classarm__compute_1_1_i_c_l_kernel.xhtml" xlink:title="Common interface for all the OpenCL kernels."><polygon fill="#fff" stroke="#000" points="40 -235.5 40 -254.5 100 -254.5 100 -235.5 40 -235.5"/><text x="70" y="-242.5" font-family="Helvetica,sans-Serif" font-size="10" text-anchor="middle">ICLKernel</text></a></g></g><g id="edge4" class="edge"><title>Node5-&gt;Node4</title><path fill="none" stroke="#191970" d="M70,-224.805C70,-215.91 70,-205.78 70,-198.751"/><polygon fill="#191970" stroke="#191970" points="66.5 -225.083 70 -235.083 73.5 -225.083 66.5 -225.083"/></g><g id="node6" class="node"><title>Node6</title><g id="a_node6"><a target="_top" xlink:href="classarm__compute_1_1_i_kernel.xhtml" xlink:title="Common information for all the kernels."><polygon fill="#fff" stroke="#000" points="46.5 -291.5 46.5 -310.5 93.5 -310.5 93.5 -291.5 46.5 -291.5"/><text x="70" y="-298.5" font-family="Helvetica,sans-Serif" font-size="10" text-anchor="middle">IKernel</text></a></g></g><g id="edge5" class="edge"><title>Node6-&gt;Node5</title><path fill="none" stroke="#191970" d="M70,-280.805C70,-271.91 70,-261.78 70,-254.751"/><polygon fill="#191970" stroke="#191970" points="66.5 -281.083 70 -291.083 73.5 -281.083 66.5 -281.083"/></g></g></svg>