<svg xmlns="http://www.w3.org/2000/svg" xmlns:xlink="http://www.w3.org/1999/xlink" width="133pt" height="308pt" viewBox="0 0 133 308"><g id="graph0" class="graph" transform="scale(1 1) rotate(0) translate(4 304)"><title>CLActivationLayerKernel</title><polygon fill="#fff" stroke="none" points="-4 4 -4 -304 129 -304 129 4 -4 4"/><g id="node1" class="node"><title>Node1</title><polygon fill="#bfbfbf" stroke="#000" points="0 -.5 0 -19.5 125 -19.5 125 -.5 0 -.5"/><text x="62.5" y="-7.5" font-family="Helvetica,sans-Serif" font-size="10" text-anchor="middle">CLActivationLayerKernel</text></g><g id="node2" class="node"><title>Node2</title><g id="a_node2"><a target="_top" xlink:href="classarm__compute_1_1_i_c_l_simple3_d_kernel.xhtml" xlink:title="Interface for simple OpenCL kernels having 1 tensor input and 1 tensor output."><polygon fill="#fff" stroke="#000" points="11 -56.5 11 -75.5 114 -75.5 114 -56.5 11 -56.5"/><text x="62.5" y="-63.5" font-family="Helvetica,sans-Serif" font-size="10" text-anchor="middle">ICLSimple3DKernel</text></a></g></g><g id="edge1" class="edge"><title>Node2-&gt;Node1</title><path fill="none" stroke="#191970" d="M62.5,-45.8045C62.5,-36.9102 62.5,-26.7798 62.5,-19.7511"/><polygon fill="#191970" stroke="#191970" points="59 -46.083 62.5 -56.083 66 -46.083 59 -46.083"/></g><g id="node3" class="node"><title>Node3</title><g id="a_node3"><a target="_top" xlink:href="classarm__compute_1_1_i_c_l_simple2_d_kernel.xhtml" xlink:title="Interface for simple OpenCL kernels having 1 tensor input and 1 tensor output."><polygon fill="#fff" stroke="#000" points="11 -112.5 11 -131.5 114 -131.5 114 -112.5 11 -112.5"/><text x="62.5" y="-119.5" font-family="Helvetica,sans-Serif" font-size="10" text-anchor="middle">ICLSimple2DKernel</text></a></g></g><g id="edge2" class="edge"><title>Node3-&gt;Node2</title><path fill="none" stroke="#191970" d="M62.5,-101.805C62.5,-92.9102 62.5,-82.7798 62.5,-75.7511"/><polygon fill="#191970" stroke="#191970" points="59 -102.083 62.5 -112.083 66 -102.083 59 -102.083"/></g><g id="node4" class="node"><title>Node4</title><g id="a_node4"><a target="_top" xlink:href="classarm__compute_1_1_i_c_l_simple_kernel.xhtml" xlink:title="Interface for simple OpenCL kernels having 1 tensor input and 1 tensor output."><polygon fill="#fff" stroke="#000" points="17.5 -168.5 17.5 -187.5 107.5 -187.5 107.5 -168.5 17.5 -168.5"/><text x="62.5" y="-175.5" font-family="Helvetica,sans-Serif" font-size="10" text-anchor="middle">ICLSimpleKernel</text></a></g></g><g id="edge3" class="edge"><title>Node4-&gt;Node3</title><path fill="none" stroke="#191970" d="M62.5,-157.805C62.5,-148.91 62.5,-138.78 62.5,-131.751"/><polygon fill="#191970" stroke="#191970" points="59 -158.083 62.5 -168.083 66 -158.083 59 -158.083"/></g><g id="node5" class="node"><title>Node5</title><g id="a_node5"><a target="_top" xlink:href="classarm__compute_1_1_i_c_l_kernel.xhtml" xlink:title="Common interface for all the OpenCL kernels."><polygon fill="#fff" stroke="#000" points="32.5 -224.5 32.5 -243.5 92.5 -243.5 92.5 -224.5 32.5 -224.5"/><text x="62.5" y="-231.5" font-family="Helvetica,sans-Serif" font-size="10" text-anchor="middle">ICLKernel</text></a></g></g><g id="edge4" class="edge"><title>Node5-&gt;Node4</title><path fill="none" stroke="#191970" d="M62.5,-213.805C62.5,-204.91 62.5,-194.78 62.5,-187.751"/><polygon fill="#191970" stroke="#191970" points="59 -214.083 62.5 -224.083 66 -214.083 59 -214.083"/></g><g id="node6" class="node"><title>Node6</title><g id="a_node6"><a target="_top" xlink:href="classarm__compute_1_1_i_kernel.xhtml" xlink:title="Common information for all the kernels."><polygon fill="#fff" stroke="#000" points="39 -280.5 39 -299.5 86 -299.5 86 -280.5 39 -280.5"/><text x="62.5" y="-287.5" font-family="Helvetica,sans-Serif" font-size="10" text-anchor="middle">IKernel</text></a></g></g><g id="edge5" class="edge"><title>Node6-&gt;Node5</title><path fill="none" stroke="#191970" d="M62.5,-269.805C62.5,-260.91 62.5,-250.78 62.5,-243.751"/><polygon fill="#191970" stroke="#191970" points="59 -270.083 62.5 -280.083 66 -270.083 59 -270.083"/></g></g></svg>