<svg xmlns="http://www.w3.org/2000/svg" xmlns:xlink="http://www.w3.org/1999/xlink" width="109pt" height="140pt" viewBox="0 0 109 140"><g id="graph0" class="graph" transform="scale(1 1) rotate(0) translate(4 136)"><title>NEIntegralImage</title><polygon fill="#fff" stroke="none" points="-4 4 -4 -136 105 -136 105 4 -4 4"/><g id="node1" class="node"><title>Node1</title><polygon fill="#bfbfbf" stroke="#000" points="5.5 -.5 5.5 -19.5 95.5 -19.5 95.5 -.5 5.5 -.5"/><text x="50.5" y="-7.5" font-family="Helvetica,sans-Serif" font-size="10" text-anchor="middle">NEIntegralImage</text></g><g id="node2" class="node"><title>Node2</title><g id="a_node2"><a target="_top" xlink:href="classarm__compute_1_1_i_n_e_simple_function.xhtml" xlink:title="Basic interface for functions which have a single NEON kernel."><polygon fill="#fff" stroke="#000" points="0 -56.5 0 -75.5 101 -75.5 101 -56.5 0 -56.5"/><text x="50.5" y="-63.5" font-family="Helvetica,sans-Serif" font-size="10" text-anchor="middle">INESimpleFunction</text></a></g></g><g id="edge1" class="edge"><title>Node2-&gt;Node1</title><path fill="none" stroke="#191970" d="M50.5,-45.8045C50.5,-36.9102 50.5,-26.7798 50.5,-19.7511"/><polygon fill="#191970" stroke="#191970" points="47 -46.083 50.5 -56.083 54 -46.083 47 -46.083"/></g><g id="node3" class="node"><title>Node3</title><g id="a_node3"><a target="_top" xlink:href="classarm__compute_1_1_i_function.xhtml" xlink:title="Base class for all functions."><polygon fill="#fff" stroke="#000" points="22 -112.5 22 -131.5 79 -131.5 79 -112.5 22 -112.5"/><text x="50.5" y="-119.5" font-family="Helvetica,sans-Serif" font-size="10" text-anchor="middle">IFunction</text></a></g></g><g id="edge2" class="edge"><title>Node3-&gt;Node2</title><path fill="none" stroke="#191970" d="M50.5,-101.805C50.5,-92.9102 50.5,-82.7798 50.5,-75.7511"/><polygon fill="#191970" stroke="#191970" points="47 -102.083 50.5 -112.083 54 -102.083 47 -102.083"/></g></g></svg>