<svg xmlns="http://www.w3.org/2000/svg" xmlns:xlink="http://www.w3.org/1999/xlink" width="173pt" height="223pt" viewBox="0 0 173 223"><g id="graph0" class="graph" transform="scale(1 1) rotate(0) translate(4 219)"><title>tests/benchmark/system_tests/CL</title><polygon fill="#fff" stroke="none" points="-4 4 -4 -219 169 -219 169 4 -4 4"/><g id="clust1" class="cluster"><title>clusterdir_a133c6c93c82e8721b2f0a6d208afd33</title><g id="a_clust1"><a target="_top" xlink:href="dir_a133c6c93c82e8721b2f0a6d208afd33.xhtml" xlink:title="system_tests"><polygon fill="#dde" stroke="#000" points="28 -136 28 -207 104 -207 104 -136 28 -136"/><text x="66" y="-195" font-family="Helvetica,sans-Serif" font-size="10" text-anchor="middle">system_tests</text></a></g></g><g id="node1" class="node"><title>dir_e92efd873d292d9829f03334575b107c</title><g id="a_node1"><a target="_top" xlink:href="dir_e92efd873d292d9829f03334575b107c.xhtml" xlink:title="CL"><polygon fill="#eef" stroke="#000" points="93 -180 39 -180 39 -144 93 -144 93 -180"/><text x="66" y="-159.5" font-family="Helvetica,sans-Serif" font-size="10" text-anchor="middle">CL</text></a></g></g><g id="node2" class="node"><title>dir_214608ef36d61442cb2b0c1c4e9a7def</title><g id="a_node2"><a target="_top" xlink:href="dir_214608ef36d61442cb2b0c1c4e9a7def.xhtml" xlink:title="arm_compute"><polygon fill="#fff" stroke="red" points="76 -36 0 -36 0 0 76 0 76 -36"/><text x="38" y="-15.5" font-family="Helvetica,sans-Serif" font-size="10" text-anchor="middle">arm_compute</text></a></g></g><g id="edge1" class="edge"><title>dir_e92efd873d292d9829f03334575b107c-&gt;dir_214608ef36d61442cb2b0c1c4e9a7def</title><path fill="none" stroke="#000" d="M50.3901,-143.774C42.6271,-134.03 34.0541,-121.184 30,-108 23.7868,-87.7951 26.4541,-63.8851 30.3085,-45.9382"/><polygon fill="#000" stroke="#000" points="33.731 -46.674 32.657 -36.133 26.924 -45.043 33.731 -46.674"/><g id="a_edge1-headlabel"><a target="_top" xlink:href="dir_000031_000000.xhtml" xlink:title="22"><text x="35.655" y="-48.331" font-family="Helvetica,sans-Serif" font-size="10" text-anchor="middle">22</text></a></g></g><g id="node3" class="node"><title>dir_896191444cf08ec8ade6f88256cb2bdd</title><g id="a_node3"><a target="_top" xlink:href="dir_896191444cf08ec8ade6f88256cb2bdd.xhtml" xlink:title="CL"><polygon fill="none" stroke="#000" points="93 -108 39 -108 39 -72 93 -72 93 -108"/><text x="66" y="-87.5" font-family="Helvetica,sans-Serif" font-size="10" text-anchor="middle">CL</text></a></g></g><g id="edge2" class="edge"><title>dir_e92efd873d292d9829f03334575b107c-&gt;dir_896191444cf08ec8ade6f88256cb2bdd</title><path fill="none" stroke="#000" d="M66,-143.697C66,-135.983 66,-126.712 66,-118.112"/><polygon fill="#000" stroke="#000" points="69.5 -118.104 66 -108.104 62.5 -118.104 69.5 -118.104"/><g id="a_edge2-headlabel"><a target="_top" xlink:href="dir_000031_000035.xhtml" xlink:title="4"><text x="72.339" y="-119.199" font-family="Helvetica,sans-Serif" font-size="10" text-anchor="middle">4</text></a></g></g><g id="node4" class="node"><title>dir_0b3c54e6965035dc3ca2dd424a2d1395</title><g id="a_node4"><a target="_top" xlink:href="dir_0b3c54e6965035dc3ca2dd424a2d1395.xhtml" xlink:title="common"><polygon fill="none" stroke="#000" points="165 -108 111 -108 111 -72 165 -72 165 -108"/><text x="138" y="-87.5" font-family="Helvetica,sans-Serif" font-size="10" text-anchor="middle">common</text></a></g></g><g id="edge3" class="edge"><title>dir_e92efd873d292d9829f03334575b107c-&gt;dir_0b3c54e6965035dc3ca2dd424a2d1395</title><path fill="none" stroke="#000" d="M83.7978,-143.697C92.604,-135.135 103.382,-124.656 113.001,-115.304"/><polygon fill="#000" stroke="#000" points="115.677 -117.585 120.407 -108.104 110.797 -112.566 115.677 -117.585"/><g id="a_edge3-headlabel"><a target="_top" xlink:href="dir_000031_000033.xhtml" xlink:title="2"><text x="115.079" y="-119.626" font-family="Helvetica,sans-Serif" font-size="10" text-anchor="middle">2</text></a></g></g><g id="edge4" class="edge"><title>dir_896191444cf08ec8ade6f88256cb2bdd-&gt;dir_214608ef36d61442cb2b0c1c4e9a7def</title><path fill="none" stroke="#000" d="M59.0786,-71.6966C55.9253,-63.8132 52.1217,-54.3042 48.6186,-45.5464"/><polygon fill="#000" stroke="#000" points="51.805 -44.089 44.842 -36.104 45.306 -46.689 51.805 -44.089"/><g id="a_edge4-headlabel"><a target="_top" xlink:href="dir_000035_000000.xhtml" xlink:title="2"><text x="55.776" y="-43.872" font-family="Helvetica,sans-Serif" font-size="10" text-anchor="middle">2</text></a></g></g></g></svg>