<svg xmlns="http://www.w3.org/2000/svg" xmlns:xlink="http://www.w3.org/1999/xlink" width="172pt" height="223pt" viewBox="0 0 172 223"><g id="graph0" class="graph" transform="scale(1 1) rotate(0) translate(4 219)"><title>tests/benchmark/system_tests/NEON</title><polygon fill="#fff" stroke="none" points="-4 4 -4 -219 168 -219 168 4 -4 4"/><g id="clust1" class="cluster"><title>clusterdir_a133c6c93c82e8721b2f0a6d208afd33</title><g id="a_clust1"><a target="_top" xlink:href="dir_a133c6c93c82e8721b2f0a6d208afd33.xhtml" xlink:title="system_tests"><polygon fill="#dde" stroke="#000" points="44 -136 44 -207 120 -207 120 -136 44 -136"/><text x="82" y="-195" font-family="Helvetica,sans-Serif" font-size="10" text-anchor="middle">system_tests</text></a></g></g><g id="node1" class="node"><title>dir_5df60b4dac2e83e111e155bc5ea540f9</title><g id="a_node1"><a target="_top" xlink:href="dir_5df60b4dac2e83e111e155bc5ea540f9.xhtml" xlink:title="NEON"><polygon fill="#eef" stroke="#000" points="109 -180 55 -180 55 -144 109 -144 109 -180"/><text x="82" y="-159.5" font-family="Helvetica,sans-Serif" font-size="10" text-anchor="middle">NEON</text></a></g></g><g id="node2" class="node"><title>dir_445738e6fed662d0b65e690e3f1e1de0</title><g id="a_node2"><a target="_top" xlink:href="dir_445738e6fed662d0b65e690e3f1e1de0.xhtml" xlink:title="NEON"><polygon fill="none" stroke="#000" points="54 -108 0 -108 0 -72 54 -72 54 -108"/><text x="27" y="-87.5" font-family="Helvetica,sans-Serif" font-size="10" text-anchor="middle">NEON</text></a></g></g><g id="edge2" class="edge"><title>dir_5df60b4dac2e83e111e155bc5ea540f9-&gt;dir_445738e6fed662d0b65e690e3f1e1de0</title><path fill="none" stroke="#000" d="M68.4045,-143.697C61.8773,-135.389 53.932,-125.277 46.7534,-116.141"/><polygon fill="#000" stroke="#000" points="49.37 -113.805 40.439 -108.104 43.865 -118.13 49.37 -113.805"/><g id="a_edge2-headlabel"><a target="_top" xlink:href="dir_000032_000036.xhtml" xlink:title="4"><text x="53.823" y="-112.377" font-family="Helvetica,sans-Serif" font-size="10" text-anchor="middle">4</text></a></g></g><g id="node3" class="node"><title>dir_214608ef36d61442cb2b0c1c4e9a7def</title><g id="a_node3"><a target="_top" xlink:href="dir_214608ef36d61442cb2b0c1c4e9a7def.xhtml" xlink:title="arm_compute"><polygon fill="#fff" stroke="red" points="92 -36 16 -36 16 0 92 0 92 -36"/><text x="54" y="-15.5" font-family="Helvetica,sans-Serif" font-size="10" text-anchor="middle">arm_compute</text></a></g></g><g id="edge3" class="edge"><title>dir_5df60b4dac2e83e111e155bc5ea540f9-&gt;dir_214608ef36d61442cb2b0c1c4e9a7def</title><path fill="none" stroke="#000" d="M78.6225,-143.871C73.8294,-119.564 65.0065,-74.8187 59.3266,-46.0132"/><polygon fill="#000" stroke="#000" points="62.758 -45.323 57.389 -36.189 55.89 -46.678 62.758 -45.323"/><g id="a_edge3-headlabel"><a target="_top" xlink:href="dir_000032_000000.xhtml" xlink:title="20"><text x="66.239" y="-45.801" font-family="Helvetica,sans-Serif" font-size="10" text-anchor="middle">20</text></a></g></g><g id="node4" class="node"><title>dir_0b3c54e6965035dc3ca2dd424a2d1395</title><g id="a_node4"><a target="_top" xlink:href="dir_0b3c54e6965035dc3ca2dd424a2d1395.xhtml" xlink:title="common"><polygon fill="none" stroke="#000" points="164 -108 110 -108 110 -72 164 -72 164 -108"/><text x="137" y="-87.5" font-family="Helvetica,sans-Serif" font-size="10" text-anchor="middle">common</text></a></g></g><g id="edge4" class="edge"><title>dir_5df60b4dac2e83e111e155bc5ea540f9-&gt;dir_0b3c54e6965035dc3ca2dd424a2d1395</title><path fill="none" stroke="#000" d="M95.5955,-143.697C102.123,-135.389 110.068,-125.277 117.247,-116.141"/><polygon fill="#000" stroke="#000" points="120.135 -118.13 123.561 -108.104 114.631 -113.805 120.135 -118.13"/><g id="a_edge4-headlabel"><a target="_top" xlink:href="dir_000032_000033.xhtml" xlink:title="2"><text x="120.147" y="-120.211" font-family="Helvetica,sans-Serif" font-size="10" text-anchor="middle">2</text></a></g></g><g id="edge1" class="edge"><title>dir_445738e6fed662d0b65e690e3f1e1de0-&gt;dir_214608ef36d61442cb2b0c1c4e9a7def</title><path fill="none" stroke="#000" d="M33.6742,-71.6966C36.7149,-63.8132 40.3827,-54.3042 43.7607,-45.5464"/><polygon fill="#000" stroke="#000" points="47.069 -46.694 47.403 -36.104 40.538 -44.175 47.069 -46.694"/><g id="a_edge1-headlabel"><a target="_top" xlink:href="dir_000036_000000.xhtml" xlink:title="2"><text x="48.425" y="-48.569" font-family="Helvetica,sans-Serif" font-size="10" text-anchor="middle">2</text></a></g></g></g></svg>