<svg xmlns="http://www.w3.org/2000/svg" xmlns:xlink="http://www.w3.org/1999/xlink" width="254pt" height="244" viewBox="0 0 254 183"><g id="graph0" class="graph" transform="scale(1 1) rotate(0) translate(4 179)"><title>arm_compute/core</title><polygon fill="#fff" stroke="none" points="-4 4 -4 -179 250 -179 250 4 -4 4"/><g id="clust1" class="cluster"><title>clusterdir_214608ef36d61442cb2b0c1c4e9a7def</title><g id="a_clust1"><a target="_top" xlink:href="dir_214608ef36d61442cb2b0c1c4e9a7def.xhtml" xlink:title="arm_compute"><polygon fill="#dde" stroke="#000" points="8 -8 8 -167 238 -167 238 -8 8 -8"/><text x="123" y="-155" font-family="Helvetica,sans-Serif" font-size="10" text-anchor="middle">arm_compute</text></a></g></g><g id="clust2" class="cluster"><title>clusterdir_1fb090f0c6070330bfaccc4236d3ca0d</title><g id="a_clust2"><a target="_top" xlink:href="dir_1fb090f0c6070330bfaccc4236d3ca0d.xhtml"><polygon fill="#eef" stroke="#000" points="16 -16 16 -140 230 -140 230 -16 16 -16"/></a></g></g><g id="node1" class="node"><title>dir_1fb090f0c6070330bfaccc4236d3ca0d</title><text x="195" y="-111.5" font-family="Helvetica,sans-Serif" font-size="10" text-anchor="middle">core</text></g><g id="node2" class="node"><title>dir_1633709b037eda5b8477677909f78129</title><g id="a_node2"><a target="_top" xlink:href="dir_1633709b037eda5b8477677909f78129.xhtml" xlink:title="CL"><polygon fill="#fff" stroke="red" points="150 -132 96 -132 96 -96 150 -96 150 -132"/><text x="123" y="-111.5" font-family="Helvetica,sans-Serif" font-size="10" text-anchor="middle">CL</text></a></g></g><g id="node3" class="node"><title>dir_7484b841a86f2d7fdd057c9b24fbf230</title><g id="a_node3"><a target="_top" xlink:href="dir_7484b841a86f2d7fdd057c9b24fbf230.xhtml" xlink:title="CPP"><polygon fill="#fff" stroke="red" points="78 -132 24 -132 24 -96 78 -96 78 -132"/><text x="51" y="-111.5" font-family="Helvetica,sans-Serif" font-size="10" text-anchor="middle">CPP</text></a></g></g><g id="node4" class="node"><title>dir_315f6cf1ec0b2df3ae747ff8286a19f5</title><g id="a_node4"><a target="_top" xlink:href="dir_315f6cf1ec0b2df3ae747ff8286a19f5.xhtml" xlink:title="NEON"><polygon fill="#fff" stroke="red" points="78 -60 24 -60 24 -24 78 -24 78 -60"/><text x="51" y="-39.5" font-family="Helvetica,sans-Serif" font-size="10" text-anchor="middle">NEON</text></a></g></g><g id="edge2" class="edge"><title>dir_7484b841a86f2d7fdd057c9b24fbf230-&gt;dir_315f6cf1ec0b2df3ae747ff8286a19f5</title><path fill="none" stroke="#000" d="M45.0843,-95.6966C44.2886,-87.9827 44.0621,-78.7125 44.4047,-70.1124"/><polygon fill="#000" stroke="#000" points="47.898 -70.324 45.105 -60.104 40.915 -69.836 47.898 -70.324"/><g id="a_edge2-headlabel"><a target="_top" xlink:href="dir_000004_000008.xhtml" xlink:title="2"><text x="50.48" y="-71.608" font-family="Helvetica,sans-Serif" font-size="10" text-anchor="middle">2</text></a></g></g><g id="edge1" class="edge"><title>dir_315f6cf1ec0b2df3ae747ff8286a19f5-&gt;dir_7484b841a86f2d7fdd057c9b24fbf230</title><path fill="none" stroke="#000" d="M56.895,-60.1043C57.7005,-67.7913 57.9369,-77.0537 57.604,-85.6651"/><polygon fill="#000" stroke="#000" points="54.108 -85.481 56.916 -95.697 61.092 -85.96 54.108 -85.481"/><g id="a_edge1-headlabel"><a target="_top" xlink:href="dir_000008_000004.xhtml" xlink:title="4"><text x="51.522" y="-79.2" font-family="Helvetica,sans-Serif" font-size="10" text-anchor="middle">4</text></a></g></g></g></svg>