<svg xmlns="http://www.w3.org/2000/svg" xmlns:xlink="http://www.w3.org/1999/xlink" width="100pt" height="151pt" viewBox="0 0 100 151"><g id="graph0" class="graph" transform="scale(1 1) rotate(0) translate(4 147)"><title>tests/benchmark/system_tests/common</title><polygon fill="#fff" stroke="none" points="-4 4 -4 -147 96 -147 96 4 -4 4"/><g id="clust1" class="cluster"><title>clusterdir_a133c6c93c82e8721b2f0a6d208afd33</title><g id="a_clust1"><a target="_top" xlink:href="dir_a133c6c93c82e8721b2f0a6d208afd33.xhtml" xlink:title="system_tests"><polygon fill="#dde" stroke="#000" points="8 -64 8 -135 84 -135 84 -64 8 -64"/><text x="46" y="-123" font-family="Helvetica,sans-Serif" font-size="10" text-anchor="middle">system_tests</text></a></g></g><g id="node1" class="node"><title>dir_0b3c54e6965035dc3ca2dd424a2d1395</title><g id="a_node1"><a target="_top" xlink:href="dir_0b3c54e6965035dc3ca2dd424a2d1395.xhtml" xlink:title="common"><polygon fill="#eef" stroke="#000" points="73 -108 19 -108 19 -72 73 -72 73 -108"/><text x="46" y="-87.5" font-family="Helvetica,sans-Serif" font-size="10" text-anchor="middle">common</text></a></g></g><g id="node2" class="node"><title>dir_ba1dc693ed461bc4c6534d3b34c816d0</title><g id="a_node2"><a target="_top" xlink:href="dir_ba1dc693ed461bc4c6534d3b34c816d0.xhtml" xlink:title="model_objects"><polygon fill="none" stroke="#000" points="86 -36 6 -36 6 0 86 0 86 -36"/><text x="46" y="-15.5" font-family="Helvetica,sans-Serif" font-size="10" text-anchor="middle">model_objects</text></a></g></g><g id="edge1" class="edge"><title>dir_0b3c54e6965035dc3ca2dd424a2d1395-&gt;dir_ba1dc693ed461bc4c6534d3b34c816d0</title><path fill="none" stroke="#000" d="M46,-71.6966C46,-63.9827 46,-54.7125 46,-46.1124"/><polygon fill="#000" stroke="#000" points="49.5 -46.104 46 -36.104 42.5 -46.104 49.5 -46.104"/><g id="a_edge1-headlabel"><a target="_top" xlink:href="dir_000033_000034.xhtml" xlink:title="2"><text x="52.339" y="-47.199" font-family="Helvetica,sans-Serif" font-size="10" text-anchor="middle">2</text></a></g></g></g></svg>