<svg xmlns="http://www.w3.org/2000/svg" xmlns:xlink="http://www.w3.org/1999/xlink" width="200" height="223pt" viewBox="0 0 150 223"><g id="graph0" class="graph" transform="scale(1 1) rotate(0) translate(4 219)"><title>tests/validation/NEON/Pooling</title><polygon fill="#fff" stroke="none" points="-4 4 -4 -219 146 -219 146 4 -4 4"/><g id="clust1" class="cluster"><title>clusterdir_0538a82dae0483a21d0f1e9d7e0a45c6</title><g id="a_clust1"><a target="_top" xlink:href="dir_0538a82dae0483a21d0f1e9d7e0a45c6.xhtml" xlink:title="NEON"><polygon fill="#dde" stroke="#000" points="64 -136 64 -207 134 -207 134 -136 64 -136"/><text x="99" y="-195" font-family="Helvetica,sans-Serif" font-size="10" text-anchor="middle">NEON</text></a></g></g><g id="node1" class="node"><title>dir_2661e87454575451859bd783c869d609</title><g id="a_node1"><a target="_top" xlink:href="dir_2661e87454575451859bd783c869d609.xhtml" xlink:title="Pooling"><polygon fill="#eef" stroke="#000" points="126 -180 72 -180 72 -144 126 -144 126 -180"/><text x="99" y="-159.5" font-family="Helvetica,sans-Serif" font-size="10" text-anchor="middle">Pooling</text></a></g></g><g id="node2" class="node"><title>dir_445738e6fed662d0b65e690e3f1e1de0</title><g id="a_node2"><a target="_top" xlink:href="dir_445738e6fed662d0b65e690e3f1e1de0.xhtml" xlink:title="NEON"><polygon fill="none" stroke="#000" points="54 -108 0 -108 0 -72 54 -72 54 -108"/><text x="27" y="-87.5" font-family="Helvetica,sans-Serif" font-size="10" text-anchor="middle">NEON</text></a></g></g><g id="edge3" class="edge"><title>dir_2661e87454575451859bd783c869d609-&gt;dir_445738e6fed662d0b65e690e3f1e1de0</title><path fill="none" stroke="#000" d="M81.2022,-143.697C72.396,-135.135 61.6179,-124.656 51.9989,-115.304"/><polygon fill="#000" stroke="#000" points="54.203 -112.566 44.593 -108.104 49.323 -117.585 54.203 -112.566"/><g id="a_edge3-headlabel"><a target="_top" xlink:href="dir_000028_000036.xhtml" xlink:title="2"><text x="58.759" y="-110.536" font-family="Helvetica,sans-Serif" font-size="10" text-anchor="middle">2</text></a></g></g><g id="node3" class="node"><title>dir_f482a42326943e614a2ec303fd116962</title><g id="a_node3"><a target="_top" xlink:href="dir_f482a42326943e614a2ec303fd116962.xhtml" xlink:title="dataset"><polygon fill="none" stroke="#000" points="126 -108 72 -108 72 -72 126 -72 126 -108"/><text x="99" y="-87.5" font-family="Helvetica,sans-Serif" font-size="10" text-anchor="middle">dataset</text></a></g></g><g id="edge4" class="edge"><title>dir_2661e87454575451859bd783c869d609-&gt;dir_f482a42326943e614a2ec303fd116962</title><path fill="none" stroke="#000" d="M99,-143.697C99,-135.983 99,-126.712 99,-118.112"/><polygon fill="#000" stroke="#000" points="102.5 -118.104 99 -108.104 95.5 -118.104 102.5 -118.104"/><g id="a_edge4-headlabel"><a target="_top" xlink:href="dir_000028_000037.xhtml" xlink:title="1"><text x="105.339" y="-119.199" font-family="Helvetica,sans-Serif" font-size="10" text-anchor="middle">1</text></a></g></g><g id="node4" class="node"><title>dir_214608ef36d61442cb2b0c1c4e9a7def</title><g id="a_node4"><a target="_top" xlink:href="dir_214608ef36d61442cb2b0c1c4e9a7def.xhtml" xlink:title="arm_compute"><polygon fill="#fff" stroke="red" points="137 -36 61 -36 61 0 137 0 137 -36"/><text x="99" y="-15.5" font-family="Helvetica,sans-Serif" font-size="10" text-anchor="middle">arm_compute</text></a></g></g><g id="edge5" class="edge"><title>dir_2661e87454575451859bd783c869d609-&gt;dir_214608ef36d61442cb2b0c1c4e9a7def</title><path fill="none" stroke="#000" d="M114.61,-143.774C122.373,-134.03 130.946,-121.184 135,-108 139.703,-92.7067 139.703,-87.2933 135,-72 131.991,-62.2153 126.493,-52.6161 120.684,-44.3336"/><polygon fill="#000" stroke="#000" points="123.407 -42.131 114.61 -36.226 117.805 -46.328 123.407 -42.131"/><g id="a_edge5-headlabel"><a target="_top" xlink:href="dir_000028_000000.xhtml" xlink:title="1"><text x="127.835" y="-40.805" font-family="Helvetica,sans-Serif" font-size="10" text-anchor="middle">1</text></a></g></g><g id="edge1" class="edge"><title>dir_445738e6fed662d0b65e690e3f1e1de0-&gt;dir_214608ef36d61442cb2b0c1c4e9a7def</title><path fill="none" stroke="#000" d="M44.7978,-71.6966C53.604,-63.135 64.3821,-52.6562 74.0011,-43.3045"/><polygon fill="#000" stroke="#000" points="76.677 -45.585 81.407 -36.104 71.797 -40.566 76.677 -45.585"/><g id="a_edge1-headlabel"><a target="_top" xlink:href="dir_000036_000000.xhtml" xlink:title="2"><text x="76.079" y="-47.626" font-family="Helvetica,sans-Serif" font-size="10" text-anchor="middle">2</text></a></g></g><g id="edge2" class="edge"><title>dir_f482a42326943e614a2ec303fd116962-&gt;dir_214608ef36d61442cb2b0c1c4e9a7def</title><path fill="none" stroke="#000" d="M99,-71.6966C99,-63.9827 99,-54.7125 99,-46.1124"/><polygon fill="#000" stroke="#000" points="102.5 -46.104 99 -36.104 95.5 -46.104 102.5 -46.104"/><g id="a_edge2-headlabel"><a target="_top" xlink:href="dir_000037_000000.xhtml" xlink:title="24"><text x="105.339" y="-47.199" font-family="Helvetica,sans-Serif" font-size="10" text-anchor="middle">24</text></a></g></g></g></svg>