<svg xmlns="http://www.w3.org/2000/svg" xmlns:xlink="http://www.w3.org/1999/xlink" width="100pt" height="188pt" viewBox="0 0 100 188"><g id="graph0" class="graph" transform="scale(1 1) rotate(0) translate(4 184)"><title>examples</title><polygon fill="#fff" stroke="none" points="-4 4 -4 -184 96 -184 96 4 -4 4"/><g id="node1" class="node"><title>dir_d28a4824dc47e487b107a5db32ef43c4</title><g id="a_node1"><a target="_top" xlink:href="dir_d28a4824dc47e487b107a5db32ef43c4.xhtml" xlink:title="examples"><polygon fill="#eef" stroke="#000" points="83.5 -180 24.5 -180 24.5 -144 83.5 -144 83.5 -180"/><text x="54" y="-159.5" font-family="Helvetica,sans-Serif" font-size="10" text-anchor="middle">examples</text></a></g></g><g id="node2" class="node"><title>dir_cbdb8362360e11eafe2fa3bc74cf0ffd</title><g id="a_node2"><a target="_top" xlink:href="dir_cbdb8362360e11eafe2fa3bc74cf0ffd.xhtml" xlink:title="utils"><polygon fill="none" stroke="#000" points="54 -108 0 -108 0 -72 54 -72 54 -108"/><text x="27" y="-87.5" font-family="Helvetica,sans-Serif" font-size="10" text-anchor="middle">utils</text></a></g></g><g id="edge1" class="edge"><title>dir_d28a4824dc47e487b107a5db32ef43c4-&gt;dir_cbdb8362360e11eafe2fa3bc74cf0ffd</title><path fill="none" stroke="#000" d="M47.3258,-143.697C44.2851,-135.813 40.6173,-126.304 37.2393,-117.546"/><polygon fill="#000" stroke="#000" points="40.462 -116.175 33.597 -108.104 33.931 -118.694 40.462 -116.175"/><g id="a_edge1-headlabel"><a target="_top" xlink:href="dir_000018_000011.xhtml" xlink:title="7"><text x="44.404" y="-116.007" font-family="Helvetica,sans-Serif" font-size="10" text-anchor="middle">7</text></a></g></g><g id="node3" class="node"><title>dir_214608ef36d61442cb2b0c1c4e9a7def</title><g id="a_node3"><a target="_top" xlink:href="dir_214608ef36d61442cb2b0c1c4e9a7def.xhtml" xlink:title="arm_compute"><polygon fill="#fff" stroke="red" points="92 -36 16 -36 16 0 92 0 92 -36"/><text x="54" y="-15.5" font-family="Helvetica,sans-Serif" font-size="10" text-anchor="middle">arm_compute</text></a></g></g><g id="edge2" class="edge"><title>dir_d28a4824dc47e487b107a5db32ef43c4-&gt;dir_214608ef36d61442cb2b0c1c4e9a7def</title><path fill="none" stroke="#000" d="M57.6538,-143.908C59.6758,-133.569 61.9808,-120.09 63,-108 64.3441,-92.0566 64.3441,-87.9434 63,-72 62.2834,-63.4991 60.9311,-54.3119 59.4884,-46.0122"/><polygon fill="#000" stroke="#000" points="62.914 -45.289 57.654 -36.093 56.031 -46.562 62.914 -45.289"/><g id="a_edge2-headlabel"><a target="_top" xlink:href="dir_000018_000000.xhtml" xlink:title="18"><text x="66.36" y="-45.807" font-family="Helvetica,sans-Serif" font-size="10" text-anchor="middle">18</text></a></g></g><g id="edge3" class="edge"><title>dir_cbdb8362360e11eafe2fa3bc74cf0ffd-&gt;dir_214608ef36d61442cb2b0c1c4e9a7def</title><path fill="none" stroke="#000" d="M33.6742,-71.6966C36.7149,-63.8132 40.3827,-54.3042 43.7607,-45.5464"/><polygon fill="#000" stroke="#000" points="47.069 -46.694 47.403 -36.104 40.538 -44.175 47.069 -46.694"/><g id="a_edge3-headlabel"><a target="_top" xlink:href="dir_000011_000000.xhtml" xlink:title="7"><text x="48.425" y="-48.569" font-family="Helvetica,sans-Serif" font-size="10" text-anchor="middle">7</text></a></g></g></g></svg>