<svg xmlns="http://www.w3.org/2000/svg" xmlns:xlink="http://www.w3.org/1999/xlink" width="188pt" height="148pt" viewBox="0 0 188 148"><g id="graph0" class="graph" transform="scale(1 1) rotate(0) translate(4 144)"><title>arm_compute</title><polygon fill="#fff" stroke="none" points="-4 4 -4 -144 184 -144 184 4 -4 4"/><g id="clust1" class="cluster"><title>clusterdir_214608ef36d61442cb2b0c1c4e9a7def</title><g id="a_clust1"><a target="_top" xlink:href="dir_214608ef36d61442cb2b0c1c4e9a7def.xhtml"><polygon fill="#eef" stroke="#000" points="8 -8 8 -132 172 -132 172 -8 8 -8"/></a></g></g><g id="node1" class="node"><title>dir_214608ef36d61442cb2b0c1c4e9a7def</title><text x="126" y="-103.5" font-family="Helvetica,sans-Serif" font-size="10" text-anchor="middle">arm_compute</text></g><g id="node2" class="node"><title>dir_1fb090f0c6070330bfaccc4236d3ca0d</title><g id="a_node2"><a target="_top" xlink:href="dir_1fb090f0c6070330bfaccc4236d3ca0d.xhtml" xlink:title="core"><polygon fill="#fff" stroke="red" points="70 -52 16 -52 16 -16 70 -16 70 -52"/><text x="43" y="-31.5" font-family="Helvetica,sans-Serif" font-size="10" text-anchor="middle">core</text></a></g></g><g id="node3" class="node"><title>dir_8bc26130589aa16388b5a02f17abf2c2</title><g id="a_node3"><a target="_top" xlink:href="dir_8bc26130589aa16388b5a02f17abf2c2.xhtml" xlink:title="runtime"><polygon fill="#fff" stroke="red" points="70 -124 16 -124 16 -88 70 -88 70 -124"/><text x="43" y="-103.5" font-family="Helvetica,sans-Serif" font-size="10" text-anchor="middle">runtime</text></a></g></g><g id="edge1" class="edge"><title>dir_8bc26130589aa16388b5a02f17abf2c2-&gt;dir_1fb090f0c6070330bfaccc4236d3ca0d</title><path fill="none" stroke="#000" d="M43,-87.6966C43,-79.9827 43,-70.7125 43,-62.1124"/><polygon fill="#000" stroke="#000" points="46.5 -62.104 43 -52.104 39.5 -62.104 46.5 -62.104"/><g id="a_edge1-headlabel"><a target="_top" xlink:href="dir_000010_000001.xhtml" xlink:title="295"><text x="49.339" y="-63.199" font-family="Helvetica,sans-Serif" font-size="10" text-anchor="middle">295</text></a></g></g></g></svg>