<svg xmlns="http://www.w3.org/2000/svg" xmlns:xlink="http://www.w3.org/1999/xlink" width="128" height="151pt" viewBox="0 0 96 151"><g id="graph0" class="graph" transform="scale(1 1) rotate(0) translate(4 147)"><title>arm_compute/runtime/NEON/functions</title><polygon fill="#fff" stroke="none" points="-4 4 -4 -147 92 -147 92 4 -4 4"/><g id="clust1" class="cluster"><title>clusterdir_65e289039e1347f87d412b0a1b1a312c</title><g id="a_clust1"><a target="_top" xlink:href="dir_65e289039e1347f87d412b0a1b1a312c.xhtml" xlink:title="NEON"><polygon fill="#dde" stroke="#000" points="8 -64 8 -135 80 -135 80 -64 8 -64"/><text x="44" y="-123" font-family="Helvetica,sans-Serif" font-size="10" text-anchor="middle">NEON</text></a></g></g><g id="node1" class="node"><title>dir_345bd7154d1542d1e03fd2836959a19d</title><g id="a_node1"><a target="_top" xlink:href="dir_345bd7154d1542d1e03fd2836959a19d.xhtml" xlink:title="functions"><polygon fill="#eef" stroke="#000" points="72 -108 16 -108 16 -72 72 -72 72 -108"/><text x="44" y="-87.5" font-family="Helvetica,sans-Serif" font-size="10" text-anchor="middle">functions</text></a></g></g><g id="node2" class="node"><title>dir_1fb090f0c6070330bfaccc4236d3ca0d</title><g id="a_node2"><a target="_top" xlink:href="dir_1fb090f0c6070330bfaccc4236d3ca0d.xhtml" xlink:title="core"><polygon fill="#fff" stroke="red" points="71 -36 17 -36 17 0 71 0 71 -36"/><text x="44" y="-15.5" font-family="Helvetica,sans-Serif" font-size="10" text-anchor="middle">core</text></a></g></g><g id="edge1" class="edge"><title>dir_345bd7154d1542d1e03fd2836959a19d-&gt;dir_1fb090f0c6070330bfaccc4236d3ca0d</title><path fill="none" stroke="#000" d="M44,-71.6966C44,-63.9827 44,-54.7125 44,-46.1124"/><polygon fill="#000" stroke="#000" points="47.5 -46.104 44 -36.104 40.5 -46.104 47.5 -46.104"/><g id="a_edge1-headlabel"><a target="_top" xlink:href="dir_000016_000001.xhtml" xlink:title="120"><text x="50.339" y="-47.199" font-family="Helvetica,sans-Serif" font-size="10" text-anchor="middle">120</text></a></g></g></g></svg>