<svg xmlns="http://www.w3.org/2000/svg" xmlns:xlink="http://www.w3.org/1999/xlink" width="396" height="88" viewBox="0 0 297 66"><g id="graph0" class="graph" transform="scale(1 1) rotate(0) translate(4 62)"><title>Graphical Class Hierarchy</title><polygon fill="#fff" stroke="none" points="-4 4 -4 -62 293 -62 293 4 -4 4"/><g id="node1" class="node"><title>Node1</title><g id="a_node1"><a target="_top" xlink:href="classarm__compute_1_1test_1_1_generic_dataset.xhtml" xlink:title="GenericDataset\&lt; GEMMData\lObject, 4 \&gt;"><polygon fill="#fff" stroke="#000" points="0 -14 0 -44 146 -44 146 -14 0 -14"/><text x="8" y="-32" font-family="Helvetica,sans-Serif" font-size="10" text-anchor="start">GenericDataset&lt; GEMMData</text><text x="73" y="-21" font-family="Helvetica,sans-Serif" font-size="10" text-anchor="middle">Object, 4 &gt;</text></a></g></g><g id="node2" class="node"><title>Node2</title><g id="a_node2"><a target="_top" xlink:href="classarm__compute_1_1test_1_1_large_g_e_m_m_dataset.xhtml" xlink:title="LargeGEMMDataset"><polygon fill="#fff" stroke="#000" points="182.5 -38.5 182.5 -57.5 288.5 -57.5 288.5 -38.5 182.5 -38.5"/><text x="235.5" y="-45.5" font-family="Helvetica,sans-Serif" font-size="10" text-anchor="middle">LargeGEMMDataset</text></a></g></g><g id="edge1" class="edge"><title>Node1-&gt;Node2</title><path fill="none" stroke="#191970" d="M156.265,-38.7386C165.128,-39.7878 173.958,-40.8331 182.323,-41.8232"/><polygon fill="#191970" stroke="#191970" points="156.61 -35.255 146.268 -37.555 155.787 -42.206 156.61 -35.255"/></g><g id="node3" class="node"><title>Node3</title><g id="a_node3"><a target="_top" xlink:href="classarm__compute_1_1test_1_1_small_g_e_m_m_dataset.xhtml" xlink:title="SmallGEMMDataset"><polygon fill="#fff" stroke="#000" points="182 -.5 182 -19.5 289 -19.5 289 -.5 182 -.5"/><text x="235.5" y="-7.5" font-family="Helvetica,sans-Serif" font-size="10" text-anchor="middle">SmallGEMMDataset</text></a></g></g><g id="edge2" class="edge"><title>Node1-&gt;Node3</title><path fill="none" stroke="#191970" d="M156.41,-19.2443C165.057,-18.2206 173.671,-17.201 181.849,-16.2328"/><polygon fill="#191970" stroke="#191970" points="155.787 -15.793 146.268 -20.445 156.61 -22.745 155.787 -15.793"/></g></g></svg>