<svg xmlns="http://www.w3.org/2000/svg" xmlns:xlink="http://www.w3.org/1999/xlink" width="436" height="88" viewBox="0 0 327 66"><g id="graph0" class="graph" transform="scale(1 1) rotate(0) translate(4 62)"><title>Graphical Class Hierarchy</title><polygon fill="#fff" stroke="none" points="-4 4 -4 -62 323 -62 323 4 -4 4"/><g id="node1" class="node"><title>Node1</title><g id="a_node1"><a target="_top" xlink:href="classarm__compute_1_1test_1_1_generic_dataset.xhtml" xlink:title="GenericDataset\&lt; GEMMData\lObject, 32 \&gt;"><polygon fill="#fff" stroke="#000" points="0 -14 0 -44 146 -44 146 -14 0 -14"/><text x="8" y="-32" font-family="Helvetica,sans-Serif" font-size="10" text-anchor="start">GenericDataset&lt; GEMMData</text><text x="73" y="-21" font-family="Helvetica,sans-Serif" font-size="10" text-anchor="middle">Object, 32 &gt;</text></a></g></g><g id="node2" class="node"><title>Node2</title><g id="a_node2"><a target="_top" xlink:href="classarm__compute_1_1test_1_1_goog_le_net_g_e_m_m_dataset1.xhtml" xlink:title="GoogLeNetGEMMDataset1"><polygon fill="#fff" stroke="#000" points="182 -38.5 182 -57.5 319 -57.5 319 -38.5 182 -38.5"/><text x="250.5" y="-45.5" font-family="Helvetica,sans-Serif" font-size="10" text-anchor="middle">GoogLeNetGEMMDataset1</text></a></g></g><g id="edge1" class="edge"><title>Node1-&gt;Node2</title><path fill="none" stroke="#191970" d="M156.186,-37.8977C164.787,-38.8288 173.459,-39.7677 181.871,-40.6784"/><polygon fill="#191970" stroke="#191970" points="156.461 -34.407 146.142 -36.81 155.707 -41.366 156.461 -34.407"/></g><g id="node3" class="node"><title>Node3</title><g id="a_node3"><a target="_top" xlink:href="classarm__compute_1_1test_1_1_goog_le_net_g_e_m_m_dataset2.xhtml" xlink:title="GoogLeNetGEMMDataset2"><polygon fill="#fff" stroke="#000" points="182 -.5 182 -19.5 319 -19.5 319 -.5 182 -.5"/><text x="250.5" y="-7.5" font-family="Helvetica,sans-Serif" font-size="10" text-anchor="middle">GoogLeNetGEMMDataset2</text></a></g></g><g id="edge2" class="edge"><title>Node1-&gt;Node3</title><path fill="none" stroke="#191970" d="M156.186,-20.1023C164.787,-19.1712 173.459,-18.2323 181.871,-17.3216"/><polygon fill="#191970" stroke="#191970" points="155.707 -16.634 146.142 -21.19 156.461 -23.593 155.707 -16.634"/></g></g></svg>