<svg xmlns="http://www.w3.org/2000/svg" xmlns:xlink="http://www.w3.org/1999/xlink" width="352" height="1522pt" viewBox="0 0 264 1522"><g id="graph0" class="graph" transform="scale(1 1) rotate(0) translate(4 1518)"><title>Graphical Class Hierarchy</title><polygon fill="#fff" stroke="none" points="-4 4 -4 -1518 260 -1518 260 4 -4 4"/><g id="node1" class="node"><title>Node1</title><polygon fill="#fff" stroke="#bfbfbf" points="0 -747 0 -766 38 -766 38 -747 0 -747"/><text x="19" y="-754" font-family="Helvetica,sans-Serif" font-size="10" text-anchor="middle">true_</text></g><g id="node2" class="node"><title>Node2</title><g id="a_node2"><a target="_top" xlink:href="structboost_1_1unit__test_1_1data_1_1monomorphic_1_1is__dataset_3_01arm__compute_1_1test_1_1_activation_functions_01_4.xhtml" xlink:title="Register the data set with Boost."><polygon fill="#fff" stroke="#000" points="95 -1483.5 95 -1513.5 235 -1513.5 235 -1483.5 95 -1483.5"/><text x="103" y="-1501.5" font-family="Helvetica,sans-Serif" font-size="10" text-anchor="start">is_dataset&lt; arm_compute</text><text x="165" y="-1490.5" font-family="Helvetica,sans-Serif" font-size="10" text-anchor="middle">::test::ActivationFunctions &gt;</text></a></g></g><g id="edge1" class="edge"><title>Node1-&gt;Node2</title><path fill="none" stroke="#191970" d="M20.1452,-776.37C21.126,-886.531 28.2229,-1419.33 74,-1474.5 79.5762,-1481.22 86.8044,-1486.17 94.7396,-1489.81"/><polygon fill="#191970" stroke="#191970" points="23.643 -776.026 20.061 -766.055 16.643 -776.083 23.643 -776.026"/></g><g id="node3" class="node"><title>Node3</title><g id="a_node3"><a target="_top" xlink:href="structboost_1_1unit__test_1_1data_1_1monomorphic_1_1is__dataset_3_01arm__compute_1_1test_1_1_ale353bc52507aa43f06dbf95e757937ea3.xhtml" xlink:title="Register the data set with Boost."><polygon fill="#fff" stroke="#000" points="87 -1424 87 -1465 243 -1465 243 -1424 87 -1424"/><text x="95" y="-1453" font-family="Helvetica,sans-Serif" font-size="10" text-anchor="start">is_dataset&lt; arm_compute</text><text x="95" y="-1442" font-family="Helvetica,sans-Serif" font-size="10" text-anchor="start">::test::AlexNetConvolutionLayer</text><text x="165" y="-1431" font-family="Helvetica,sans-Serif" font-size="10" text-anchor="middle">Dataset &gt;</text></a></g></g><g id="edge2" class="edge"><title>Node1-&gt;Node3</title><path fill="none" stroke="#191970" d="M20.3502,-776.611C22.347,-881.516 33.6695,-1363.12 74,-1414.5 77.6609,-1419.16 82.0719,-1423.11 86.9497,-1426.45"/><polygon fill="#191970" stroke="#191970" points="23.847 -776.378 20.164 -766.444 16.848 -776.506 23.847 -776.378"/></g><g id="node4" class="node"><title>Node4</title><g id="a_node4"><a target="_top" xlink:href="structboost_1_1unit__test_1_1data_1_1monomorphic_1_1is__dataset_3_01arm__compute_1_1test_1_1_ale08494eac301fe59801c94a1e49323f42.xhtml" xlink:title="Register the data set with Boost."><polygon fill="#fff" stroke="#000" points="90.5 -1364 90.5 -1405 239.5 -1405 239.5 -1364 90.5 -1364"/><text x="98.5" y="-1393" font-family="Helvetica,sans-Serif" font-size="10" text-anchor="start">is_dataset&lt; arm_compute</text><text x="98.5" y="-1382" font-family="Helvetica,sans-Serif" font-size="10" text-anchor="start">::test::AlexNetFullyConnected</text><text x="165" y="-1371" font-family="Helvetica,sans-Serif" font-size="10" text-anchor="middle">LayerDataset &gt;</text></a></g></g><g id="edge3" class="edge"><title>Node1-&gt;Node4</title><path fill="none" stroke="#191970" d="M20.4969,-776.022C23.156,-873.994 36.993,-1309.22 74,-1355.5 78.5108,-1361.14 84.1298,-1365.7 90.3426,-1369.38"/><polygon fill="#191970" stroke="#191970" points="23.995 -775.92 20.233 -766.016 16.998 -776.105 23.995 -775.92"/></g><g id="node5" class="node"><title>Node5</title><g id="a_node5"><a target="_top" xlink:href="structboost_1_1unit__test_1_1data_1_1monomorphic_1_1is__dataset_3_01arm__compute_1_1test_1_1_all_data_types_01_4.xhtml" xlink:title="Register the data set with Boost."><polygon fill="#fff" stroke="#000" points="100 -1315.5 100 -1345.5 230 -1345.5 230 -1315.5 100 -1315.5"/><text x="108" y="-1333.5" font-family="Helvetica,sans-Serif" font-size="10" text-anchor="start">is_dataset&lt; arm_compute</text><text x="165" y="-1322.5" font-family="Helvetica,sans-Serif" font-size="10" text-anchor="middle">::test::AllDataTypes &gt;</text></a></g></g><g id="edge4" class="edge"><title>Node1-&gt;Node5</title><path fill="none" stroke="#191970" d="M20.6222,-776.192C23.7458,-869.605 38.9742,-1265.25 74,-1306.5 80.8038,-1314.51 89.9547,-1320 99.8222,-1323.74"/><polygon fill="#191970" stroke="#191970" points="24.118 -776.009 20.294 -766.128 17.122 -776.237 24.118 -776.009"/></g><g id="node6" class="node"><title>Node6</title><g id="a_node6"><a target="_top" xlink:href="structboost_1_1unit__test_1_1data_1_1monomorphic_1_1is__dataset_3_01arm__compute_1_1test_1_1_border_modes_01_4.xhtml" xlink:title="Register the data set with Boost."><polygon fill="#fff" stroke="#000" points="100 -1266.5 100 -1296.5 230 -1296.5 230 -1266.5 100 -1266.5"/><text x="108" y="-1284.5" font-family="Helvetica,sans-Serif" font-size="10" text-anchor="start">is_dataset&lt; arm_compute</text><text x="165" y="-1273.5" font-family="Helvetica,sans-Serif" font-size="10" text-anchor="middle">::test::BorderModes &gt;</text></a></g></g><g id="edge5" class="edge"><title>Node1-&gt;Node6</title><path fill="none" stroke="#191970" d="M20.8284,-776.349C24.6927,-864.798 42.1194,-1220.32 74,-1257.5 80.8418,-1265.48 90.0114,-1270.95 99.8857,-1274.68"/><polygon fill="#191970" stroke="#191970" points="24.314 -775.944 20.39 -766.103 17.321 -776.244 24.314 -775.944"/></g><g id="node7" class="node"><title>Node7</title><g id="a_node7"><a target="_top" xlink:href="structboost_1_1unit__test_1_1data_1_1monomorphic_1_1is__dataset_3_01arm__compute_1_1test_1_1_c_n_n_data_types_01_4.xhtml" xlink:title="Register the data set with Boost."><polygon fill="#fff" stroke="#000" points="100 -1217.5 100 -1247.5 230 -1247.5 230 -1217.5 100 -1217.5"/><text x="108" y="-1235.5" font-family="Helvetica,sans-Serif" font-size="10" text-anchor="start">is_dataset&lt; arm_compute</text><text x="165" y="-1224.5" font-family="Helvetica,sans-Serif" font-size="10" text-anchor="middle">::test::CNNDataTypes &gt;</text></a></g></g><g id="edge6" class="edge"><title>Node1-&gt;Node7</title><path fill="none" stroke="#191970" d="M19.5276,-776.694C18.1001,-855.706 16.9838,-1142.77 74,-1208.5 80.8877,-1216.44 90.0799,-1221.9 99.9623,-1225.62"/><polygon fill="#191970" stroke="#191970" points="23.036 -776.298 19.742 -766.229 16.038 -776.155 23.036 -776.298"/></g><g id="node8" class="node"><title>Node8</title><g id="a_node8"><a target="_top" xlink:href="structboost_1_1unit__test_1_1data_1_1monomorphic_1_1is__dataset_3_01arm__compute_1_1test_1_1_c_n_n_fixed_point_data_types_01_4.xhtml" xlink:title="Register the data set with Boost."><polygon fill="#fff" stroke="#000" points="79.5 -1168.5 79.5 -1198.5 250.5 -1198.5 250.5 -1168.5 79.5 -1168.5"/><text x="87.5" y="-1186.5" font-family="Helvetica,sans-Serif" font-size="10" text-anchor="start">is_dataset&lt; arm_compute</text><text x="165" y="-1175.5" font-family="Helvetica,sans-Serif" font-size="10" text-anchor="middle">::test::CNNFixedPointDataTypes &gt;</text></a></g></g><g id="edge7" class="edge"><title>Node1-&gt;Node8</title><path fill="none" stroke="#191970" d="M19.8566,-776.362C19.7403,-849.374 23.0916,-1101.65 74,-1159.5 76.9914,-1162.9 80.4051,-1165.84 84.1129,-1168.39"/><polygon fill="#191970" stroke="#191970" points="23.357 -776.255 19.898 -766.241 16.357 -776.226 23.357 -776.255"/></g><g id="node9" class="node"><title>Node9</title><g id="a_node9"><a target="_top" xlink:href="structboost_1_1unit__test_1_1data_1_1monomorphic_1_1is__dataset_3_01arm__compute_1_1test_1_1_c_n_n_float_data_types_01_4.xhtml" xlink:title="Register the data set with Boost."><polygon fill="#fff" stroke="#000" points="92 -1119.5 92 -1149.5 238 -1149.5 238 -1119.5 92 -1119.5"/><text x="100" y="-1137.5" font-family="Helvetica,sans-Serif" font-size="10" text-anchor="start">is_dataset&lt; arm_compute</text><text x="165" y="-1126.5" font-family="Helvetica,sans-Serif" font-size="10" text-anchor="middle">::test::CNNFloatDataTypes &gt;</text></a></g></g><g id="edge8" class="edge"><title>Node1-&gt;Node9</title><path fill="none" stroke="#191970" d="M20.2607,-776.061C21.5518,-842.85 29.1844,-1060.5 74,-1110.5 78.965,-1116.04 85.0515,-1120.36 91.6963,-1123.73"/><polygon fill="#191970" stroke="#191970" points="23.76 -775.987 20.094 -766.046 16.761 -776.103 23.76 -775.987"/></g><g id="node10" class="node"><title>Node10</title><g id="a_node10"><a target="_top" xlink:href="structboost_1_1unit__test_1_1data_1_1monomorphic_1_1is__dataset_3_01arm__compute_1_1test_1_1_convert_policies_01_4.xhtml" xlink:title="Register the data set with Boost."><polygon fill="#fff" stroke="#000" points="100 -1070.5 100 -1100.5 230 -1100.5 230 -1070.5 100 -1070.5"/><text x="108" y="-1088.5" font-family="Helvetica,sans-Serif" font-size="10" text-anchor="start">is_dataset&lt; arm_compute</text><text x="165" y="-1077.5" font-family="Helvetica,sans-Serif" font-size="10" text-anchor="middle">::test::ConvertPolicies &gt;</text></a></g></g><g id="edge9" class="edge"><title>Node1-&gt;Node10</title><path fill="none" stroke="#191970" d="M20.808,-776.438C23.6809,-837.358 35.393,-1019.45 74,-1061.5 80.9992,-1069.12 90.1238,-1074.44 99.8737,-1078.12"/><polygon fill="#191970" stroke="#191970" points="24.296 -776.076 20.358 -766.24 17.302 -776.384 24.296 -776.076"/></g><g id="node11" class="node"><title>Node11</title><g id="a_node11"><a target="_top" xlink:href="structboost_1_1unit__test_1_1data_1_1monomorphic_1_1is__dataset_3_01arm__compute_1_1test_1_1_direct_convolution_shapes_01_4.xhtml" xlink:title="Register the data set with Boost."><polygon fill="#fff" stroke="#000" points="82.5 -1021.5 82.5 -1051.5 247.5 -1051.5 247.5 -1021.5 82.5 -1021.5"/><text x="90.5" y="-1039.5" font-family="Helvetica,sans-Serif" font-size="10" text-anchor="start">is_dataset&lt; arm_compute</text><text x="165" y="-1028.5" font-family="Helvetica,sans-Serif" font-size="10" text-anchor="middle">::test::DirectConvolutionShapes &gt;</text></a></g></g><g id="edge10" class="edge"><title>Node1-&gt;Node11</title><path fill="none" stroke="#191970" d="M21.5398,-776.338C26.1271,-830.333 41.454,-978.192 74,-1012.5 77.2275,-1015.9 80.8787,-1018.84 84.8162,-1021.38"/><polygon fill="#191970" stroke="#191970" points="25.002 -775.732 20.701 -766.05 18.025 -776.301 25.002 -775.732"/></g><g id="node12" class="node"><title>Node12</title><g id="a_node12"><a target="_top" xlink:href="structboost_1_1unit__test_1_1data_1_1monomorphic_1_1is__dataset_3_01arm__compute_1_1test_1_1_fixed_point_data_types_01_4.xhtml" xlink:title="Register the data set with Boost."><polygon fill="#fff" stroke="#000" points="90.5 -972.5 90.5 -1002.5 239.5 -1002.5 239.5 -972.5 90.5 -972.5"/><text x="98.5" y="-990.5" font-family="Helvetica,sans-Serif" font-size="10" text-anchor="start">is_dataset&lt; arm_compute</text><text x="165" y="-979.5" font-family="Helvetica,sans-Serif" font-size="10" text-anchor="middle">::test::FixedPointDataTypes &gt;</text></a></g></g><g id="edge11" class="edge"><title>Node1-&gt;Node12</title><path fill="none" stroke="#191970" d="M22.588,-776.157C29.0773,-822.519 47.4451,-936.801 74,-963.5 78.6755,-968.201 84.1618,-972.012 90.0794,-975.097"/><polygon fill="#191970" stroke="#191970" points="26.044 -775.598 21.227 -766.162 19.108 -776.542 26.044 -775.598"/></g><g id="node13" class="node"><title>Node13</title><g id="a_node13"><a target="_top" xlink:href="structboost_1_1unit__test_1_1data_1_1monomorphic_1_1is__dataset_3_01arm__compute_1_1test_1_1_float_data_types_01_4.xhtml" xlink:title="Register the data set with Boost."><polygon fill="#fff" stroke="#000" points="100 -923.5 100 -953.5 230 -953.5 230 -923.5 100 -923.5"/><text x="108" y="-941.5" font-family="Helvetica,sans-Serif" font-size="10" text-anchor="start">is_dataset&lt; arm_compute</text><text x="165" y="-930.5" font-family="Helvetica,sans-Serif" font-size="10" text-anchor="middle">::test::FloatDataTypes &gt;</text></a></g></g><g id="edge12" class="edge"><title>Node1-&gt;Node13</title><path fill="none" stroke="#191970" d="M21.0201,-776.708C23.8308,-810.284 34.3838,-877.517 74,-914.5 81.3288,-921.342 90.3867,-926.277 99.9062,-929.828"/><polygon fill="#191970" stroke="#191970" points="24.485 -776.08 20.314 -766.341 17.502 -776.556 24.485 -776.08"/></g><g id="node14" class="node"><title>Node14</title><g id="a_node14"><a target="_top" xlink:href="structboost_1_1unit__test_1_1data_1_1monomorphic_1_1is__dataset_3_01arm__compute_1_1test_1_1_interpolation_policies_01_4.xhtml" xlink:title="Register the data set with Boost."><polygon fill="#fff" stroke="#000" points="94 -874.5 94 -904.5 236 -904.5 236 -874.5 94 -874.5"/><text x="102" y="-892.5" font-family="Helvetica,sans-Serif" font-size="10" text-anchor="start">is_dataset&lt; arm_compute</text><text x="165" y="-881.5" font-family="Helvetica,sans-Serif" font-size="10" text-anchor="middle">::test::InterpolationPolicies &gt;</text></a></g></g><g id="edge13" class="edge"><title>Node1-&gt;Node14</title><path fill="none" stroke="#191970" d="M24.3814,-775.962C30.929,-800.51 45.6515,-842.307 74,-865.5 79.8824,-870.313 86.6385,-874.167 93.7492,-877.253"/><polygon fill="#191970" stroke="#191970" points="27.723 -774.896 21.929 -766.026 20.927 -776.573 27.723 -774.896"/></g><g id="node15" class="node"><title>Node15</title><g id="a_node15"><a target="_top" xlink:href="structboost_1_1unit__test_1_1data_1_1monomorphic_1_1is__dataset_3_01arm__compute_1_1test_1_1_larb321d1e758b5a8ba2357d45c9fb79214.xhtml" xlink:title="Register the data set with Boost."><polygon fill="#fff" stroke="#000" points="84.5 -815 84.5 -856 245.5 -856 245.5 -815 84.5 -815"/><text x="92.5" y="-844" font-family="Helvetica,sans-Serif" font-size="10" text-anchor="start">is_dataset&lt; arm_compute</text><text x="92.5" y="-833" font-family="Helvetica,sans-Serif" font-size="10" text-anchor="start">::test::LargeFullyConnectedLayer</text><text x="165" y="-822" font-family="Helvetica,sans-Serif" font-size="10" text-anchor="middle">Dataset &gt;</text></a></g></g><g id="edge14" class="edge"><title>Node1-&gt;Node15</title><path fill="none" stroke="#191970" d="M35.0627,-773.883C45.1461,-784.585 59.2362,-797.863 74,-806.5 79.2427,-809.567 84.85,-812.353 90.6069,-814.876"/><polygon fill="#191970" stroke="#191970" points="37.504 -771.366 28.188 -766.32 32.325 -776.074 37.504 -771.366"/></g><g id="node16" class="node"><title>Node16</title><g id="a_node16"><a target="_top" xlink:href="structboost_1_1unit__test_1_1data_1_1monomorphic_1_1is__dataset_3_01arm__compute_1_1test_1_1_large_g_e_m_m_dataset_01_4.xhtml" xlink:title="Register the data set with Boost."><polygon fill="#fff" stroke="#000" points="93.5 -766.5 93.5 -796.5 236.5 -796.5 236.5 -766.5 93.5 -766.5"/><text x="101.5" y="-784.5" font-family="Helvetica,sans-Serif" font-size="10" text-anchor="start">is_dataset&lt; arm_compute</text><text x="165" y="-773.5" font-family="Helvetica,sans-Serif" font-size="10" text-anchor="middle">::test::LargeGEMMDataset &gt;</text></a></g></g><g id="edge15" class="edge"><title>Node1-&gt;Node16</title><path fill="none" stroke="#191970" d="M48.3804,-761.427C61.3911,-763.686 77.4515,-766.474 93.4188,-769.246"/><polygon fill="#191970" stroke="#191970" points="48.689 -757.928 38.238 -759.666 47.492 -764.825 48.689 -757.928"/></g><g id="node17" class="node"><title>Node17</title><g id="a_node17"><a target="_top" xlink:href="structboost_1_1unit__test_1_1data_1_1monomorphic_1_1is__dataset_3_01arm__compute_1_1test_1_1_large_images_01_4.xhtml" xlink:title="Register the data set with Boost."><polygon fill="#fff" stroke="#000" points="100 -717.5 100 -747.5 230 -747.5 230 -717.5 100 -717.5"/><text x="108" y="-735.5" font-family="Helvetica,sans-Serif" font-size="10" text-anchor="start">is_dataset&lt; arm_compute</text><text x="165" y="-724.5" font-family="Helvetica,sans-Serif" font-size="10" text-anchor="middle">::test::LargeImages &gt;</text></a></g></g><g id="edge16" class="edge"><title>Node1-&gt;Node17</title><path fill="none" stroke="#191970" d="M48.2532,-751.791C63.0647,-749.323 81.8541,-746.191 99.9632,-743.173"/><polygon fill="#191970" stroke="#191970" points="47.526 -748.364 38.238 -753.46 48.677 -755.269 47.526 -748.364"/></g><g id="node18" class="node"><title>Node18</title><g id="a_node18"><a target="_top" xlink:href="structboost_1_1unit__test_1_1data_1_1monomorphic_1_1is__dataset_3_01arm__compute_1_1test_1_1_large_shapes_01_4.xhtml" xlink:title="Register the data set with Boost."><polygon fill="#fff" stroke="#000" points="100 -668.5 100 -698.5 230 -698.5 230 -668.5 100 -668.5"/><text x="108" y="-686.5" font-family="Helvetica,sans-Serif" font-size="10" text-anchor="start">is_dataset&lt; arm_compute</text><text x="165" y="-675.5" font-family="Helvetica,sans-Serif" font-size="10" text-anchor="middle">::test::LargeShapes &gt;</text></a></g></g><g id="edge17" class="edge"><title>Node1-&gt;Node18</title><path fill="none" stroke="#191970" d="M35.0746,-739.636C45.1627,-729.291 59.2536,-716.533 74,-708.5 81.9748,-704.156 90.7673,-700.516 99.6381,-697.48"/><polygon fill="#191970" stroke="#191970" points="32.492 -737.273 28.196 -746.957 37.594 -742.066 32.492 -737.273"/></g><g id="node19" class="node"><title>Node19</title><g id="a_node19"><a target="_top" xlink:href="structboost_1_1unit__test_1_1data_1_1monomorphic_1_1is__dataset_3_01arm__compute_1_1test_1_1_normalization_types_01_4.xhtml" xlink:title="Register the data set with Boost."><polygon fill="#fff" stroke="#000" points="94.5 -619.5 94.5 -649.5 235.5 -649.5 235.5 -619.5 94.5 -619.5"/><text x="102.5" y="-637.5" font-family="Helvetica,sans-Serif" font-size="10" text-anchor="start">is_dataset&lt; arm_compute</text><text x="165" y="-626.5" font-family="Helvetica,sans-Serif" font-size="10" text-anchor="middle">::test::NormalizationTypes &gt;</text></a></g></g><g id="edge18" class="edge"><title>Node1-&gt;Node19</title><path fill="none" stroke="#191970" d="M25.6779,-737.266C33.1725,-715.229 48.4909,-679.581 74,-659.5 80.1163,-654.685 87.103,-650.797 94.4188,-647.657"/><polygon fill="#191970" stroke="#191970" points="22.321 -736.273 22.617 -746.863 28.99 -738.4 22.321 -736.273"/></g><g id="node20" class="node"><title>Node20</title><g id="a_node20"><a target="_top" xlink:href="structboost_1_1unit__test_1_1data_1_1monomorphic_1_1is__dataset_3_01arm__compute_1_1test_1_1_ran0c09af4ee7a64edb9be5e86462d7cfee.xhtml" xlink:title="Register the data set with Boost."><polygon fill="#fff" stroke="#000" points="81.5 -560 81.5 -601 248.5 -601 248.5 -560 81.5 -560"/><text x="89.5" y="-589" font-family="Helvetica,sans-Serif" font-size="10" text-anchor="start">is_dataset&lt; arm_compute</text><text x="89.5" y="-578" font-family="Helvetica,sans-Serif" font-size="10" text-anchor="start">::test::RandomBatchNormalization</text><text x="165" y="-567" font-family="Helvetica,sans-Serif" font-size="10" text-anchor="middle">LayerDataset &gt;</text></a></g></g><g id="edge19" class="edge"><title>Node1-&gt;Node20</title><path fill="none" stroke="#191970" d="M21.9093,-736.739C25.9581,-705.614 38.2012,-645.154 74,-610.5 77.6685,-606.949 81.7683,-603.818 86.1411,-601.057"/><polygon fill="#191970" stroke="#191970" points="18.42 -736.444 20.76 -746.777 25.375 -737.24 18.42 -736.444"/></g><g id="node21" class="node"><title>Node21</title><g id="a_node21"><a target="_top" xlink:href="structboost_1_1unit__test_1_1data_1_1monomorphic_1_1is__dataset_3_01arm__compute_1_1test_1_1_random_pooling_layer_dataset_01_4.xhtml" xlink:title="Register the data set with Boost."><polygon fill="#fff" stroke="#000" points="74 -511.5 74 -541.5 256 -541.5 256 -511.5 74 -511.5"/><text x="82" y="-529.5" font-family="Helvetica,sans-Serif" font-size="10" text-anchor="start">is_dataset&lt; arm_compute</text><text x="165" y="-518.5" font-family="Helvetica,sans-Serif" font-size="10" text-anchor="middle">::test::RandomPoolingLayerDataset &gt;</text></a></g></g><g id="edge20" class="edge"><title>Node1-&gt;Node21</title><path fill="none" stroke="#191970" d="M19.0879,-736.646C18.3543,-695.823 22.7311,-601.986 74,-550.5 77.4231,-547.062 81.2799,-544.101 85.4217,-541.551"/><polygon fill="#191970" stroke="#191970" points="15.591 -736.787 19.396 -746.675 22.587 -736.572 15.591 -736.787"/></g><g id="node22" class="node"><title>Node22</title><g id="a_node22"><a target="_top" xlink:href="structboost_1_1unit__test_1_1data_1_1monomorphic_1_1is__dataset_3_01arm__compute_1_1test_1_1_rounding_policies_01_4.xhtml" xlink:title="Register the data set with Boost."><polygon fill="#fff" stroke="#000" points="100 -462.5 100 -492.5 230 -492.5 230 -462.5 100 -462.5"/><text x="108" y="-480.5" font-family="Helvetica,sans-Serif" font-size="10" text-anchor="start">is_dataset&lt; arm_compute</text><text x="165" y="-469.5" font-family="Helvetica,sans-Serif" font-size="10" text-anchor="middle">::test::RoundingPolicies &gt;</text></a></g></g><g id="edge21" class="edge"><title>Node1-&gt;Node22</title><path fill="none" stroke="#191970" d="M21.6125,-736.473C26.3435,-682.645 41.9187,-536.616 74,-502.5 80.9987,-495.057 90.0034,-489.764 99.6028,-486.012"/><polygon fill="#191970" stroke="#191970" points="18.098 -736.492 20.744 -746.752 25.074 -737.082 18.098 -736.492"/></g><g id="node23" class="node"><title>Node23</title><g id="a_node23"><a target="_top" xlink:href="structboost_1_1unit__test_1_1data_1_1monomorphic_1_1is__dataset_3_01arm__compute_1_1test_1_1_signed_data_types_01_4.xhtml" xlink:title="is_dataset\&lt; arm_compute\l::test::SignedDataTypes \&gt;"><polygon fill="#fff" stroke="#000" points="99 -413.5 99 -443.5 231 -443.5 231 -413.5 99 -413.5"/><text x="107" y="-431.5" font-family="Helvetica,sans-Serif" font-size="10" text-anchor="start">is_dataset&lt; arm_compute</text><text x="165" y="-420.5" font-family="Helvetica,sans-Serif" font-size="10" text-anchor="middle">::test::SignedDataTypes &gt;</text></a></g></g><g id="edge22" class="edge"><title>Node1-&gt;Node23</title><path fill="none" stroke="#191970" d="M20.8463,-736.708C23.8305,-676.236 35.8313,-495.461 74,-453.5 80.7654,-446.062 89.5328,-440.761 98.9356,-436.997"/><polygon fill="#191970" stroke="#191970" points="17.344 -736.681 20.377 -746.832 24.336 -737.005 17.344 -736.681"/></g><g id="node24" class="node"><title>Node24</title><g id="a_node24"><a target="_top" xlink:href="structboost_1_1unit__test_1_1data_1_1monomorphic_1_1is__dataset_3_01arm__compute_1_1test_1_1_small1_d_shape_01_4.xhtml" xlink:title="Register the data set with Boost."><polygon fill="#fff" stroke="#000" points="100 -364.5 100 -394.5 230 -394.5 230 -364.5 100 -364.5"/><text x="108" y="-382.5" font-family="Helvetica,sans-Serif" font-size="10" text-anchor="start">is_dataset&lt; arm_compute</text><text x="165" y="-371.5" font-family="Helvetica,sans-Serif" font-size="10" text-anchor="middle">::test::Small1DShape &gt;</text></a></g></g><g id="edge23" class="edge"><title>Node1-&gt;Node24</title><path fill="none" stroke="#191970" d="M20.3055,-736.627C21.738,-669.76 29.7655,-454.325 74,-404.5 80.8905,-396.739 89.9607,-391.296 99.6902,-387.497"/><polygon fill="#191970" stroke="#191970" points="16.805 -736.616 20.117 -746.68 23.804 -736.747 16.805 -736.616"/></g><g id="node25" class="node"><title>Node25</title><g id="a_node25"><a target="_top" xlink:href="structboost_1_1unit__test_1_1data_1_1monomorphic_1_1is__dataset_3_01arm__compute_1_1test_1_1_sma37aa36c611469959a5228d982ba942dd.xhtml" xlink:title="Register the data set with Boost."><polygon fill="#fff" stroke="#000" points="92 -305 92 -346 238 -346 238 -305 92 -305"/><text x="100" y="-334" font-family="Helvetica,sans-Serif" font-size="10" text-anchor="start">is_dataset&lt; arm_compute</text><text x="100" y="-323" font-family="Helvetica,sans-Serif" font-size="10" text-anchor="start">::test::SmallConvolutionLayer</text><text x="165" y="-312" font-family="Helvetica,sans-Serif" font-size="10" text-anchor="middle">Dataset &gt;</text></a></g></g><g id="edge24" class="edge"><title>Node1-&gt;Node25</title><path fill="none" stroke="#191970" d="M19.9873,-736.835C20.3326,-664.532 25.1038,-414.569 74,-355.5 78.9361,-349.537 85.0933,-344.752 91.8569,-340.914"/><polygon fill="#191970" stroke="#191970" points="16.487 -736.849 19.964 -746.857 23.487 -736.865 16.487 -736.849"/></g><g id="node26" class="node"><title>Node26</title><g id="a_node26"><a target="_top" xlink:href="structboost_1_1unit__test_1_1data_1_1monomorphic_1_1is__dataset_3_01arm__compute_1_1test_1_1_sma7e005b651d0eb6b1236ae8f2d63b33e2.xhtml" xlink:title="Register the data set with Boost."><polygon fill="#fff" stroke="#000" points="84 -245 84 -286 246 -286 246 -245 84 -245"/><text x="92" y="-274" font-family="Helvetica,sans-Serif" font-size="10" text-anchor="start">is_dataset&lt; arm_compute</text><text x="92" y="-263" font-family="Helvetica,sans-Serif" font-size="10" text-anchor="start">::test::SmallFullyConnectedLayer</text><text x="165" y="-252" font-family="Helvetica,sans-Serif" font-size="10" text-anchor="middle">Dataset &gt;</text></a></g></g><g id="edge25" class="edge"><title>Node1-&gt;Node26</title><path fill="none" stroke="#191970" d="M19.5957,-736.501C18.3915,-657.018 17.9043,-364.469 74,-295.5 76.9099,-291.922 80.2599,-288.768 83.919,-285.988"/><polygon fill="#191970" stroke="#191970" points="16.098 -736.692 19.772 -746.629 23.097 -736.57 16.098 -736.692"/></g><g id="node27" class="node"><title>Node27</title><g id="a_node27"><a target="_top" xlink:href="structboost_1_1unit__test_1_1data_1_1monomorphic_1_1is__dataset_3_01arm__compute_1_1test_1_1_small_g_e_m_m_dataset_01_4.xhtml" xlink:title="Register the data set with Boost."><polygon fill="#fff" stroke="#000" points="93 -196.5 93 -226.5 237 -226.5 237 -196.5 93 -196.5"/><text x="101" y="-214.5" font-family="Helvetica,sans-Serif" font-size="10" text-anchor="start">is_dataset&lt; arm_compute</text><text x="165" y="-203.5" font-family="Helvetica,sans-Serif" font-size="10" text-anchor="middle">::test::SmallGEMMDataset &gt;</text></a></g></g><g id="edge26" class="edge"><title>Node1-&gt;Node27</title><path fill="none" stroke="#191970" d="M20.7389,-736.725C24.293,-646.231 40.8358,-274.34 74,-235.5 79.1454,-229.474 85.6183,-224.876 92.7221,-221.379"/><polygon fill="#191970" stroke="#191970" points="17.233 -736.824 20.346 -746.951 24.227 -737.092 17.233 -736.824"/></g><g id="node28" class="node"><title>Node28</title><g id="a_node28"><a target="_top" xlink:href="structboost_1_1unit__test_1_1data_1_1monomorphic_1_1is__dataset_3_01arm__compute_1_1test_1_1_small_images_01_4.xhtml" xlink:title="Register the data set with Boost."><polygon fill="#fff" stroke="#000" points="100 -147.5 100 -177.5 230 -177.5 230 -147.5 100 -147.5"/><text x="108" y="-165.5" font-family="Helvetica,sans-Serif" font-size="10" text-anchor="start">is_dataset&lt; arm_compute</text><text x="165" y="-154.5" font-family="Helvetica,sans-Serif" font-size="10" text-anchor="middle">::test::SmallImages &gt;</text></a></g></g><g id="edge27" class="edge"><title>Node1-&gt;Node28</title><path fill="none" stroke="#191970" d="M20.5651,-736.75C23.4684,-641.285 37.9899,-230.493 74,-187.5 80.7683,-179.419 89.9017,-173.83 99.7628,-169.989"/><polygon fill="#191970" stroke="#191970" points="17.059 -736.901 20.262 -747 24.056 -737.108 17.059 -736.901"/></g><g id="node29" class="node"><title>Node29</title><g id="a_node29"><a target="_top" xlink:href="structboost_1_1unit__test_1_1data_1_1monomorphic_1_1is__dataset_3_01arm__compute_1_1test_1_1_small_shapes_01_4.xhtml" xlink:title="Register the data set with Boost."><polygon fill="#fff" stroke="#000" points="100 -98.5 100 -128.5 230 -128.5 230 -98.5 100 -98.5"/><text x="108" y="-116.5" font-family="Helvetica,sans-Serif" font-size="10" text-anchor="start">is_dataset&lt; arm_compute</text><text x="165" y="-105.5" font-family="Helvetica,sans-Serif" font-size="10" text-anchor="middle">::test::SmallShapes &gt;</text></a></g></g><g id="edge28" class="edge"><title>Node1-&gt;Node29</title><path fill="none" stroke="#191970" d="M20.4105,-736.637C22.6635,-636.024 34.8882,-185.552 74,-138.5 80.7381,-130.394 89.8566,-124.793 99.7124,-120.947"/><polygon fill="#191970" stroke="#191970" points="16.911 -736.595 20.194 -746.668 23.909 -736.746 16.911 -736.595"/></g><g id="node30" class="node"><title>Node30</title><g id="a_node30"><a target="_top" xlink:href="structboost_1_1unit__test_1_1data_1_1monomorphic_1_1is__dataset_3_01arm__compute_1_1test_1_1_threshold_dataset_01_4.xhtml" xlink:title="Register the data set with Boost."><polygon fill="#fff" stroke="#000" points="99.5 -49.5 99.5 -79.5 230.5 -79.5 230.5 -49.5 99.5 -49.5"/><text x="107.5" y="-67.5" font-family="Helvetica,sans-Serif" font-size="10" text-anchor="start">is_dataset&lt; arm_compute</text><text x="165" y="-56.5" font-family="Helvetica,sans-Serif" font-size="10" text-anchor="middle">::test::ThresholdDataset &gt;</text></a></g></g><g id="edge29" class="edge"><title>Node1-&gt;Node30</title><path fill="none" stroke="#191970" d="M20.2739,-736.747C21.9044,-631.617 31.7509,-140.657 74,-89.5 80.6089,-81.4976 89.5384,-75.9339 99.2151,-72.0897"/><polygon fill="#191970" stroke="#191970" points="16.772 -736.849 20.124 -746.9 23.771 -736.953 16.772 -736.849"/></g><g id="node31" class="node"><title>Node31</title><g id="a_node31"><a target="_top" xlink:href="structboost_1_1unit__test_1_1data_1_1monomorphic_1_1is__dataset_3_01arm__compute_1_1test_1_1_unsigned_data_types_01_4.xhtml" xlink:title="Register the data set with Boost."><polygon fill="#fff" stroke="#000" points="93.5 -.5 93.5 -30.5 236.5 -30.5 236.5 -.5 93.5 -.5"/><text x="101.5" y="-18.5" font-family="Helvetica,sans-Serif" font-size="10" text-anchor="start">is_dataset&lt; arm_compute</text><text x="165" y="-7.5" font-family="Helvetica,sans-Serif" font-size="10" text-anchor="middle">::test::UnsignedDataTypes &gt;</text></a></g></g><g id="edge30" class="edge"><title>Node1-&gt;Node31</title><path fill="none" stroke="#191970" d="M20.1584,-736.693C21.2104,-626.879 28.629,-95.7464 74,-40.5 79.2489,-34.1086 85.9784,-29.2716 93.3902,-25.6233"/><polygon fill="#191970" stroke="#191970" points="16.656 -736.945 20.067 -746.975 23.656 -737.007 16.656 -736.945"/></g></g></svg>