<svg xmlns="http://www.w3.org/2000/svg" xmlns:xlink="http://www.w3.org/1999/xlink" width="236" height="88" viewBox="0 0 177 66"><g id="graph0" class="graph" transform="scale(1 1) rotate(0) translate(4 62)"><title>Graphical Class Hierarchy</title><polygon fill="#fff" stroke="none" points="-4 4 -4 -62 173 -62 173 4 -4 4"/><g id="node1" class="node"><title>Node1</title><g id="a_node1"><a target="_top" xlink:href="classarm__compute_1_1test_1_1_i_accessor.xhtml" xlink:title="Common interface to provide information and access to tensor like structures."><polygon fill="#fff" stroke="#000" points="0 -19.5 0 -38.5 61 -38.5 61 -19.5 0 -19.5"/><text x="30.5" y="-26.5" font-family="Helvetica,sans-Serif" font-size="10" text-anchor="middle">IAccessor</text></a></g></g><g id="node2" class="node"><title>Node2</title><g id="a_node2"><a target="_top" xlink:href="classarm__compute_1_1test_1_1cl_1_1_c_l_accessor.xhtml" xlink:title="Accessor implementation for CLTensor objects."><polygon fill="#fff" stroke="#000" points="97.5 -38.5 97.5 -57.5 168.5 -57.5 168.5 -38.5 97.5 -38.5"/><text x="133" y="-45.5" font-family="Helvetica,sans-Serif" font-size="10" text-anchor="middle">CLAccessor</text></a></g></g><g id="edge1" class="edge"><title>Node1-&gt;Node2</title><path fill="none" stroke="#191970" d="M71.0225,-36.4719C79.6979,-38.112 88.8209,-39.8368 97.2905,-41.438"/><polygon fill="#191970" stroke="#191970" points="71.586 -33.017 61.11 -34.598 70.285 -39.895 71.586 -33.017"/></g><g id="node3" class="node"><title>Node3</title><g id="a_node3"><a target="_top" xlink:href="classarm__compute_1_1test_1_1neon_1_1_n_e_accessor.xhtml" xlink:title="Accessor implementation for Tensor objects."><polygon fill="#fff" stroke="#000" points="97 -.5 97 -19.5 169 -19.5 169 -.5 97 -.5"/><text x="133" y="-7.5" font-family="Helvetica,sans-Serif" font-size="10" text-anchor="middle">NEAccessor</text></a></g></g><g id="edge2" class="edge"><title>Node1-&gt;Node3</title><path fill="none" stroke="#191970" d="M71.1986,-21.4948C79.6981,-19.8879 88.6193,-18.2013 96.9294,-16.6303"/><polygon fill="#191970" stroke="#191970" points="70.285 -18.105 61.11 -23.402 71.586 -24.983 70.285 -18.105"/></g></g></svg>