<svg xmlns="http://www.w3.org/2000/svg" xmlns:xlink="http://www.w3.org/1999/xlink" width="324" height="88" viewBox="0 0 243 66"><g id="graph0" class="graph" transform="scale(1 1) rotate(0) translate(4 62)"><title>Graphical Class Hierarchy</title><polygon fill="#fff" stroke="none" points="-4 4 -4 -62 239 -62 239 4 -4 4"/><g id="node1" class="node"><title>Node1</title><g id="a_node1"><a target="_top" xlink:href="classarm__compute_1_1test_1_1_data_types.xhtml" xlink:title="DataTypes\&lt; 2 \&gt;"><polygon fill="#fff" stroke="#000" points="0 -19.5 0 -38.5 88 -38.5 88 -19.5 0 -19.5"/><text x="44" y="-26.5" font-family="Helvetica,sans-Serif" font-size="10" text-anchor="middle">DataTypes&lt; 2 &gt;</text></a></g></g><g id="node2" class="node"><title>Node2</title><g id="a_node2"><a target="_top" xlink:href="classarm__compute_1_1test_1_1_c_n_n_data_types.xhtml" xlink:title="Supported CNN types."><polygon fill="#fff" stroke="#000" points="136 -38.5 136 -57.5 223 -57.5 223 -38.5 136 -38.5"/><text x="179.5" y="-45.5" font-family="Helvetica,sans-Serif" font-size="10" text-anchor="middle">CNNDataTypes</text></a></g></g><g id="edge1" class="edge"><title>Node1-&gt;Node2</title><path fill="none" stroke="#191970" d="M98.5639,-36.6233C110.955,-38.3868 123.977,-40.2402 135.83,-41.9271"/><polygon fill="#191970" stroke="#191970" points="98.737 -33.113 88.344 -35.169 97.751 -40.043 98.737 -33.113"/></g><g id="node3" class="node"><title>Node3</title><g id="a_node3"><a target="_top" xlink:href="classarm__compute_1_1test_1_1_fixed_point_data_types.xhtml" xlink:title="Data set containing all fixed point data types."><polygon fill="#fff" stroke="#000" points="124 -.5 124 -19.5 235 -19.5 235 -.5 124 -.5"/><text x="179.5" y="-7.5" font-family="Helvetica,sans-Serif" font-size="10" text-anchor="middle">FixedPointDataTypes</text></a></g></g><g id="edge2" class="edge"><title>Node1-&gt;Node3</title><path fill="none" stroke="#191970" d="M98.3335,-21.4095C106.672,-20.2227 115.302,-18.9944 123.674,-17.803"/><polygon fill="#191970" stroke="#191970" points="97.751 -17.957 88.344 -22.831 98.737 -24.887 97.751 -17.957"/></g></g></svg>