<svg xmlns="http://www.w3.org/2000/svg" xmlns:xlink="http://www.w3.org/1999/xlink" width="271pt" height="164" viewBox="0 0 271 123"><g id="graph0" class="graph" transform="scale(1 1) rotate(0) translate(4 119)"><title>Graphical Class Hierarchy</title><polygon fill="#fff" stroke="none" points="-4 4 -4 -119 267 -119 267 4 -4 4"/><g id="node1" class="node"><title>Node1</title><g id="a_node1"><a target="_top" xlink:href="classarm__compute_1_1_i_tensor.xhtml" xlink:title="Interface for NEON tensor."><polygon fill="#fff" stroke="#000" points="0 -38.5 0 -57.5 50 -57.5 50 -38.5 0 -38.5"/><text x="25" y="-45.5" font-family="Helvetica,sans-Serif" font-size="10" text-anchor="middle">ITensor</text></a></g></g><g id="node2" class="node"><title>Node2</title><g id="a_node2"><a target="_top" xlink:href="classarm__compute_1_1_i_c_l_tensor.xhtml" xlink:title="Interface for OpenCL tensor."><polygon fill="#fff" stroke="#000" points="87 -76.5 87 -95.5 149 -95.5 149 -76.5 87 -76.5"/><text x="118" y="-83.5" font-family="Helvetica,sans-Serif" font-size="10" text-anchor="middle">ICLTensor</text></a></g></g><g id="edge1" class="edge"><title>Node1-&gt;Node2</title><path fill="none" stroke="#191970" d="M58.4694,-61.5587C70.234,-66.4714 83.268,-71.9141 94.0442,-76.4141"/><polygon fill="#191970" stroke="#191970" points="59.54 -58.213 48.963 -57.589 56.842 -64.672 59.54 -58.213"/></g><g id="node5" class="node"><title>Node5</title><g id="a_node5"><a target="_top" xlink:href="classarm__compute_1_1_sub_tensor.xhtml" xlink:title="Basic implementation of the sub-tensor interface."><polygon fill="#fff" stroke="#000" points="86 -38.5 86 -57.5 150 -57.5 150 -38.5 86 -38.5"/><text x="118" y="-45.5" font-family="Helvetica,sans-Serif" font-size="10" text-anchor="middle">SubTensor</text></a></g></g><g id="edge4" class="edge"><title>Node1-&gt;Node5</title><path fill="none" stroke="#191970" d="M60.4999,-48C68.7727,-48 77.5615,-48 85.681,-48"/><polygon fill="#191970" stroke="#191970" points="60.386 -44.5 50.386 -48 60.386 -51.5 60.386 -44.5"/></g><g id="node6" class="node"><title>Node6</title><g id="a_node6"><a target="_top" xlink:href="classarm__compute_1_1_tensor.xhtml" xlink:title="Basic implementation of the tensor interface."><polygon fill="#fff" stroke="#000" points="94.5 -.5 94.5 -19.5 141.5 -19.5 141.5 -.5 94.5 -.5"/><text x="118" y="-7.5" font-family="Helvetica,sans-Serif" font-size="10" text-anchor="middle">Tensor</text></a></g></g><g id="edge5" class="edge"><title>Node1-&gt;Node6</title><path fill="none" stroke="#191970" d="M58.5449,-34.4098C70.4048,-29.4574 83.5457,-23.9699 94.3594,-19.4543"/><polygon fill="#191970" stroke="#191970" points="56.842 -31.328 48.963 -38.411 59.54 -37.787 56.842 -31.328"/></g><g id="node3" class="node"><title>Node3</title><g id="a_node3"><a target="_top" xlink:href="classarm__compute_1_1_c_l_sub_tensor.xhtml" xlink:title="Basic implementation of the OpenCL sub-tensor interface."><polygon fill="#fff" stroke="#000" points="186 -95.5 186 -114.5 263 -114.5 263 -95.5 186 -95.5"/><text x="224.5" y="-102.5" font-family="Helvetica,sans-Serif" font-size="10" text-anchor="middle">CLSubTensor</text></a></g></g><g id="edge2" class="edge"><title>Node2-&gt;Node3</title><path fill="none" stroke="#191970" d="M159.236,-93.3156C168.004,-94.9097 177.249,-96.5907 185.909,-98.1653"/><polygon fill="#191970" stroke="#191970" points="159.691 -89.841 149.226 -91.496 158.438 -96.728 159.691 -89.841"/></g><g id="node4" class="node"><title>Node4</title><g id="a_node4"><a target="_top" xlink:href="classarm__compute_1_1_c_l_tensor.xhtml" xlink:title="Basic implementation of the OpenCL tensor interface."><polygon fill="#fff" stroke="#000" points="195 -57.5 195 -76.5 254 -76.5 254 -57.5 195 -57.5"/><text x="224.5" y="-64.5" font-family="Helvetica,sans-Serif" font-size="10" text-anchor="middle">CLTensor</text></a></g></g><g id="edge3" class="edge"><title>Node2-&gt;Node4</title><path fill="none" stroke="#191970" d="M159.329,-78.6675C171.152,-76.5178 183.836,-74.2117 194.779,-72.2221"/><polygon fill="#191970" stroke="#191970" points="158.438 -75.272 149.226 -80.504 159.691 -82.159 158.438 -75.272"/></g></g></svg>