<svg xmlns="http://www.w3.org/2000/svg" xmlns:xlink="http://www.w3.org/1999/xlink" width="238pt" height="88" viewBox="0 0 238 66"><g id="graph0" class="graph" transform="scale(1 1) rotate(0) translate(4 62)"><title>Graphical Class Hierarchy</title><polygon fill="#fff" stroke="none" points="-4 4 -4 -62 234 -62 234 4 -4 4"/><g id="node1" class="node"><title>Node1</title><g id="a_node1"><a target="_top" xlink:href="classarm__compute_1_1test_1_1_data_types.xhtml" xlink:title="DataTypes\&lt; 4 \&gt;"><polygon fill="#fff" stroke="#000" points="0 -19.5 0 -38.5 88 -38.5 88 -19.5 0 -19.5"/><text x="44" y="-26.5" font-family="Helvetica,sans-Serif" font-size="10" text-anchor="middle">DataTypes&lt; 4 &gt;</text></a></g></g><g id="node2" class="node"><title>Node2</title><g id="a_node2"><a target="_top" xlink:href="classarm__compute_1_1test_1_1_signed_data_types.xhtml" xlink:title="Data set containing all signed data types."><polygon fill="#fff" stroke="#000" points="129.5 -38.5 129.5 -57.5 224.5 -57.5 224.5 -38.5 129.5 -38.5"/><text x="177" y="-45.5" font-family="Helvetica,sans-Serif" font-size="10" text-anchor="middle">SignedDataTypes</text></a></g></g><g id="edge1" class="edge"><title>Node1-&gt;Node2</title><path fill="none" stroke="#191970" d="M98.3093,-36.7319C108.537,-38.2153 119.176,-39.7583 129.18,-41.2093"/><polygon fill="#191970" stroke="#191970" points="98.656 -33.246 88.257 -35.274 97.651 -40.173 98.656 -33.246"/></g><g id="node3" class="node"><title>Node3</title><g id="a_node3"><a target="_top" xlink:href="classarm__compute_1_1test_1_1_unsigned_data_types.xhtml" xlink:title="Data set containing all unsigned data types."><polygon fill="#fff" stroke="#000" points="124 -.5 124 -19.5 230 -19.5 230 -.5 124 -.5"/><text x="177" y="-7.5" font-family="Helvetica,sans-Serif" font-size="10" text-anchor="middle">UnsignedDataTypes</text></a></g></g><g id="edge2" class="edge"><title>Node1-&gt;Node3</title><path fill="none" stroke="#191970" d="M98.2948,-21.2702C106.667,-20.0559 115.316,-18.8015 123.666,-17.5904"/><polygon fill="#191970" stroke="#191970" points="97.651 -17.827 88.257 -22.726 98.656 -24.754 97.651 -17.827"/></g></g></svg>