<svg xmlns="http://www.w3.org/2000/svg" xmlns:xlink="http://www.w3.org/1999/xlink" width="274pt" height="88" viewBox="0 0 274 66"><g id="graph0" class="graph" transform="scale(1 1) rotate(0) translate(4 62)"><title>Graphical Class Hierarchy</title><polygon fill="#fff" stroke="none" points="-4 4 -4 -62 270 -62 270 4 -4 4"/><g id="node1" class="node"><title>Node1</title><g id="a_node1"><a target="_top" xlink:href="classarm__compute_1_1test_1_1_program_options.xhtml" xlink:title="Defines available commandline arguments and allows to parse them."><polygon fill="#fff" stroke="#000" points="0 -19.5 0 -38.5 87 -38.5 87 -19.5 0 -19.5"/><text x="43.5" y="-26.5" font-family="Helvetica,sans-Serif" font-size="10" text-anchor="middle">ProgramOptions</text></a></g></g><g id="node2" class="node"><title>Node2</title><g id="a_node2"><a target="_top" xlink:href="classarm__compute_1_1test_1_1performance_1_1_performance_program_options.xhtml" xlink:title="Subclass of ProgramOptions that adds performance specific options."><polygon fill="#fff" stroke="#000" points="123 -38.5 123 -57.5 266 -57.5 266 -38.5 123 -38.5"/><text x="194.5" y="-45.5" font-family="Helvetica,sans-Serif" font-size="10" text-anchor="middle">PerformanceProgramOptions</text></a></g></g><g id="edge1" class="edge"><title>Node1-&gt;Node2</title><path fill="none" stroke="#191970" d="M97.155,-35.7144C105.508,-36.7795 114.263,-37.8959 122.946,-39.0032"/><polygon fill="#191970" stroke="#191970" points="97.56 -32.238 87.197 -34.445 96.674 -39.181 97.56 -32.238"/></g><g id="node3" class="node"><title>Node3</title><g id="a_node3"><a target="_top" xlink:href="classarm__compute_1_1test_1_1validation_1_1_validation_program_options.xhtml" xlink:title="Subclass of ProgramOptions that adds validation specific options."><polygon fill="#fff" stroke="#000" points="129.5 -.5 129.5 -19.5 259.5 -19.5 259.5 -.5 129.5 -.5"/><text x="194.5" y="-7.5" font-family="Helvetica,sans-Serif" font-size="10" text-anchor="middle">ValidationProgramOptions</text></a></g></g><g id="edge2" class="edge"><title>Node1-&gt;Node3</title><path fill="none" stroke="#191970" d="M97.3372,-22.2624C107.715,-20.939 118.708,-19.5373 129.408,-18.1728"/><polygon fill="#191970" stroke="#191970" points="96.674 -18.819 87.197 -23.555 97.56 -25.762 96.674 -18.819"/></g></g></svg>