<svg xmlns="http://www.w3.org/2000/svg" xmlns:xlink="http://www.w3.org/1999/xlink" width="266pt" height="88" viewBox="0 0 266 66"><g id="graph0" class="graph" transform="scale(1 1) rotate(0) translate(4 62)"><title>Graphical Class Hierarchy</title><polygon fill="#fff" stroke="none" points="-4 4 -4 -62 262 -62 262 4 -4 4"/><g id="node1" class="node"><title>Node1</title><g id="a_node1"><a target="_top" xlink:href="classarm__compute_1_1test_1_1_data_types.xhtml" xlink:title="DataTypes\&lt; 1 \&gt;"><polygon fill="#fff" stroke="#000" points="0 -19.5 0 -38.5 88 -38.5 88 -19.5 0 -19.5"/><text x="44" y="-26.5" font-family="Helvetica,sans-Serif" font-size="10" text-anchor="middle">DataTypes&lt; 1 &gt;</text></a></g></g><g id="node2" class="node"><title>Node2</title><g id="a_node2"><a target="_top" xlink:href="classarm__compute_1_1test_1_1_c_n_n_fixed_point_data_types.xhtml" xlink:title="Supported CNN fixed point types."><polygon fill="#fff" stroke="#000" points="124 -38.5 124 -57.5 258 -57.5 258 -38.5 124 -38.5"/><text x="191" y="-45.5" font-family="Helvetica,sans-Serif" font-size="10" text-anchor="middle">CNNFixedPointDataTypes</text></a></g></g><g id="edge1" class="edge"><title>Node1-&gt;Node2</title><path fill="none" stroke="#191970" d="M98.1377,-35.9629C106.536,-37.0634 115.309,-38.2129 123.958,-39.3462"/><polygon fill="#191970" stroke="#191970" points="98.482 -32.478 88.112 -34.649 97.573 -39.419 98.482 -32.478"/></g><g id="node3" class="node"><title>Node3</title><g id="a_node3"><a target="_top" xlink:href="classarm__compute_1_1test_1_1_c_n_n_float_data_types.xhtml" xlink:title="Supported CNN float types."><polygon fill="#fff" stroke="#000" points="136.5 -.5 136.5 -19.5 245.5 -19.5 245.5 -.5 136.5 -.5"/><text x="191" y="-7.5" font-family="Helvetica,sans-Serif" font-size="10" text-anchor="middle">CNNFloatDataTypes</text></a></g></g><g id="edge2" class="edge"><title>Node1-&gt;Node3</title><path fill="none" stroke="#191970" d="M98.2875,-22.0175C110.668,-20.3952 123.854,-18.6674 136.254,-17.0425"/><polygon fill="#191970" stroke="#191970" points="97.573 -18.581 88.112 -23.351 98.482 -25.522 97.573 -18.581"/></g></g></svg>