<svg xmlns="http://www.w3.org/2000/svg" xmlns:xlink="http://www.w3.org/1999/xlink" width="202pt" height="88" viewBox="0 0 202 66"><g id="graph0" class="graph" transform="scale(1 1) rotate(0) translate(4 62)"><title>Graphical Class Hierarchy</title><polygon fill="#fff" stroke="none" points="-4 4 -4 -62 198 -62 198 4 -4 4"/><g id="node1" class="node"><title>Node1</title><g id="a_node1"><a target="_top" xlink:href="classarm__compute_1_1_i_lut.xhtml" xlink:title="Lookup Table object interface."><polygon fill="#fff" stroke="#000" points="0 -19.5 0 -38.5 33 -38.5 33 -19.5 0 -19.5"/><text x="16.5" y="-26.5" font-family="Helvetica,sans-Serif" font-size="10" text-anchor="middle">ILut</text></a></g></g><g id="node2" class="node"><title>Node2</title><g id="a_node2"><a target="_top" xlink:href="classarm__compute_1_1_i_c_l_lut.xhtml" xlink:title="Interface for OpenCL LUT."><polygon fill="#fff" stroke="#000" points="69 -38.5 69 -57.5 115 -57.5 115 -38.5 69 -38.5"/><text x="92" y="-45.5" font-family="Helvetica,sans-Serif" font-size="10" text-anchor="middle">ICLLut</text></a></g></g><g id="edge1" class="edge"><title>Node1-&gt;Node2</title><path fill="none" stroke="#191970" d="M42.7943,-35.5387C51.228,-37.7188 60.5561,-40.1301 68.7419,-42.2462"/><polygon fill="#191970" stroke="#191970" points="43.645 -32.144 33.087 -33.029 41.893 -38.921 43.645 -32.144"/></g><g id="node4" class="node"><title>Node4</title><g id="a_node4"><a target="_top" xlink:href="classarm__compute_1_1_lut.xhtml" xlink:title="Basic implementation of the LUT interface."><polygon fill="#fff" stroke="#000" points="77 -.5 77 -19.5 107 -19.5 107 -.5 77 -.5"/><text x="92" y="-7.5" font-family="Helvetica,sans-Serif" font-size="10" text-anchor="middle">Lut</text></a></g></g><g id="edge3" class="edge"><title>Node1-&gt;Node4</title><path fill="none" stroke="#191970" d="M42.9504,-22.421C54.3366,-19.4776 67.3261,-16.1198 76.9263,-13.6381"/><polygon fill="#191970" stroke="#191970" points="41.893 -19.079 33.087 -24.971 43.645 -25.856 41.893 -19.079"/></g><g id="node3" class="node"><title>Node3</title><g id="a_node3"><a target="_top" xlink:href="classarm__compute_1_1_c_l_lut.xhtml" xlink:title="Basic implementation of the OpenCL lut interface."><polygon fill="#fff" stroke="#000" points="151 -38.5 151 -57.5 194 -57.5 194 -38.5 151 -38.5"/><text x="172.5" y="-45.5" font-family="Helvetica,sans-Serif" font-size="10" text-anchor="middle">CLLut</text></a></g></g><g id="edge2" class="edge"><title>Node2-&gt;Node3</title><path fill="none" stroke="#191970" d="M125.407,-48C133.982,-48 143.007,-48 150.776,-48"/><polygon fill="#191970" stroke="#191970" points="125.285 -44.5 115.285 -48 125.285 -51.5 125.285 -44.5"/></g></g></svg>