<svg xmlns="http://www.w3.org/2000/svg" xmlns:xlink="http://www.w3.org/1999/xlink" width="224pt" height="104pt" viewBox="0 0 224 104"><g id="graph0" class="graph" transform="scale(1 1) rotate(0) translate(4 100)"><title>Graphical Class Hierarchy</title><polygon fill="#fff" stroke="none" points="-4 4 -4 -100 220 -100 220 4 -4 4"/><g id="node1" class="node"><title>Node1</title><g id="a_node1"><a target="_top" xlink:href="classarm__compute_1_1_i_scheduler.xhtml" xlink:title="Scheduler interface to run kernels."><polygon fill="#fff" stroke="#000" points="0 -38.5 0 -57.5 63 -57.5 63 -38.5 0 -38.5"/><text x="31.5" y="-45.5" font-family="Helvetica,sans-Serif" font-size="10" text-anchor="middle">IScheduler</text></a></g></g><g id="node2" class="node"><title>Node2</title><g id="a_node2"><a target="_top" xlink:href="classarm__compute_1_1_c_p_p_scheduler.xhtml" xlink:title="C++11 implementation of a pool of threads to automatically split a kernel's execution among several t..."><polygon fill="#fff" stroke="#000" points="117 -76.5 117 -95.5 198 -95.5 198 -76.5 117 -76.5"/><text x="157.5" y="-83.5" font-family="Helvetica,sans-Serif" font-size="10" text-anchor="middle">CPPScheduler</text></a></g></g><g id="edge1" class="edge"><title>Node1-&gt;Node2</title><path fill="none" stroke="#191970" d="M72.8517,-60.3658C89.8949,-65.5888 109.434,-71.5765 125.34,-76.4509"/><polygon fill="#191970" stroke="#191970" points="73.738 -56.977 63.152 -57.393 71.687 -63.67 73.738 -56.977"/></g><g id="node3" class="node"><title>Node3</title><g id="a_node3"><a target="_top" xlink:href="classarm__compute_1_1_o_m_p_scheduler.xhtml" xlink:title="Pool of threads to automatically split a kernel's execution among several threads."><polygon fill="#fff" stroke="#000" points="116 -38.5 116 -57.5 199 -57.5 199 -38.5 116 -38.5"/><text x="157.5" y="-45.5" font-family="Helvetica,sans-Serif" font-size="10" text-anchor="middle">OMPScheduler</text></a></g></g><g id="edge2" class="edge"><title>Node1-&gt;Node3</title><path fill="none" stroke="#191970" d="M73.2649,-48C86.9589,-48 102.225,-48 115.906,-48"/><polygon fill="#191970" stroke="#191970" points="73.152 -44.5 63.152 -48 73.152 -51.5 73.152 -44.5"/></g><g id="node4" class="node"><title>Node4</title><g id="a_node4"><a target="_top" xlink:href="classarm__compute_1_1_single_thread_scheduler.xhtml" xlink:title="Pool of threads to automatically split a kernel's execution among several threads."><polygon fill="#fff" stroke="#000" points="99 -.5 99 -19.5 216 -19.5 216 -.5 99 -.5"/><text x="157.5" y="-7.5" font-family="Helvetica,sans-Serif" font-size="10" text-anchor="middle">SingleThreadScheduler</text></a></g></g><g id="edge3" class="edge"><title>Node1-&gt;Node4</title><path fill="none" stroke="#191970" d="M72.8517,-35.6342C89.8949,-30.4112 109.434,-24.4235 125.34,-19.5491"/><polygon fill="#191970" stroke="#191970" points="71.687 -32.33 63.152 -38.607 73.738 -39.023 71.687 -32.33"/></g></g></svg>