<svg xmlns="http://www.w3.org/2000/svg" xmlns:xlink="http://www.w3.org/1999/xlink" width="292pt" height="88" viewBox="0 0 292 66"><g id="graph0" class="graph" transform="scale(1 1) rotate(0) translate(4 62)"><title>Graphical Class Hierarchy</title><polygon fill="#fff" stroke="none" points="-4 4 -4 -62 288 -62 288 4 -4 4"/><g id="node1" class="node"><title>Node1</title><g id="a_node1"><a target="_top" xlink:href="classarm__compute_1_1_i_multi_h_o_g.xhtml" xlink:title="Interface for storing multiple HOG data-objects."><polygon fill="#fff" stroke="#000" points="0 -19.5 0 -38.5 63 -38.5 63 -19.5 0 -19.5"/><text x="31.5" y="-26.5" font-family="Helvetica,sans-Serif" font-size="10" text-anchor="middle">IMultiHOG</text></a></g></g><g id="node2" class="node"><title>Node2</title><g id="a_node2"><a target="_top" xlink:href="classarm__compute_1_1_i_c_l_multi_h_o_g.xhtml" xlink:title="Interface for storing multiple HOG data-objects."><polygon fill="#fff" stroke="#000" points="99 -38.5 99 -57.5 175 -57.5 175 -38.5 99 -38.5"/><text x="137" y="-45.5" font-family="Helvetica,sans-Serif" font-size="10" text-anchor="middle">ICLMultiHOG</text></a></g></g><g id="edge1" class="edge"><title>Node1-&gt;Node2</title><path fill="none" stroke="#191970" d="M73.3191,-36.4934C81.7737,-38.0454 90.6361,-39.6723 98.947,-41.198"/><polygon fill="#191970" stroke="#191970" points="73.741 -33.012 63.273 -34.649 72.477 -39.897 73.741 -33.012"/></g><g id="node4" class="node"><title>Node4</title><g id="a_node4"><a target="_top" xlink:href="classarm__compute_1_1_multi_h_o_g.xhtml" xlink:title="CPU implementation of multi HOG data-object."><polygon fill="#fff" stroke="#000" points="107 -.5 107 -19.5 167 -19.5 167 -.5 107 -.5"/><text x="137" y="-7.5" font-family="Helvetica,sans-Serif" font-size="10" text-anchor="middle">MultiHOG</text></a></g></g><g id="edge3" class="edge"><title>Node1-&gt;Node4</title><path fill="none" stroke="#191970" d="M73.325,-21.5055C84.5611,-19.4429 96.5171,-17.2481 106.941,-15.3344"/><polygon fill="#191970" stroke="#191970" points="72.477 -18.103 63.273 -23.351 73.741 -24.988 72.477 -18.103"/></g><g id="node3" class="node"><title>Node3</title><g id="a_node3"><a target="_top" xlink:href="classarm__compute_1_1_c_l_multi_h_o_g.xhtml" xlink:title="Basic implementation of the CL multi HOG data-objects."><polygon fill="#fff" stroke="#000" points="211 -38.5 211 -57.5 284 -57.5 284 -38.5 211 -38.5"/><text x="247.5" y="-45.5" font-family="Helvetica,sans-Serif" font-size="10" text-anchor="middle">CLMultiHOG</text></a></g></g><g id="edge2" class="edge"><title>Node2-&gt;Node3</title><path fill="none" stroke="#191970" d="M185.277,-48C193.816,-48 202.589,-48 210.731,-48"/><polygon fill="#191970" stroke="#191970" points="185.036 -44.5 175.036 -48 185.036 -51.5 185.036 -44.5"/></g></g></svg>